<?xml version="1.0" encoding="UTF-8" standalone="no"?>
<!DOCTYPE svg PUBLIC "-//W3C//DTD SVG 1.1//EN" "http://www.w3.org/Graphics/SVG/1.1/DTD/svg11.dtd">
<svg xmlns="http://www.w3.org/2000/svg" xmlns:xlink="http://www.w3.org/1999/xlink" version="1.1" width="940.01pt" height="959.1pt" viewBox="0 0 940.01 959.1">
<g enable-background="new">
<path transform="matrix(.2,0,0,.2,747.58999,1324.72)" d="M 211.9 68.8 L 159.7 68.8 L 159.7 147.6 L 242.4 147.6 L 242.4 99.3 C 242.4 82.5 228.8 68.8 211.9 68.8 Z " fill="#428cff"/>
<path transform="matrix(.2,0,0,.2,747.58999,1324.72)" d="M 242.4 147.6 L 159.7 147.6 L 159.7 228.8 L 211.9 228.8 C 228.7 228.8 242.4 215.1 242.4 198.3 L 242.4 147.6 Z " fill="#2670de"/>
<path transform="matrix(.2,0,0,.2,747.58999,1324.72)" d="M 159.7 68.8 L 113.1 68.8 C 96.3 68.8 82.6 82.5 82.6 99.3 L 82.6 198.3 C 82.6 215.1 96.3 228.8 113.1 228.8 L 159.7 228.8 L 159.7 68.8 Z " fill="#2161cf"/>
<path transform="matrix(.2,0,0,.2,747.58999,1324.72)" d="M 135.9 165.1 L 113.9 165.1 C 110.5 165.1 107.8 162.4 107.8 159 L 107.8 137 C 107.8 133.6 110.5 130.9 113.9 130.9 L 135.9 130.9 C 139.3 130.9 142 133.6 142 137 L 142 159 C 142 162.4 139.2 165.1 135.9 165.1 Z M 185 92.8 L 207 92.8 C 210.4 92.8 213.1 95.5 213.1 98.9 L 213.1 120.9 C 213.1 124.299999 210.4 127 207 127 L 185 127 C 181.6 127 178.9 124.299999 178.9 120.9 L 178.9 98.9 C 178.9 95.5 181.7 92.8 185 92.8 Z M 185 171 L 207 171 C 210.4 171 213.1 173.7 213.1 177.1 L 213.1 199.1 C 213.1 202.5 210.4 205.2 207 205.2 L 185 205.2 C 181.6 205.2 178.9 202.5 178.9 199.1 L 178.9 177.1 C 178.9 173.7 181.7 171 185 171 Z " fill="#ffffff"/>
<path transform="matrix(.2,0,0,.2,747.58999,1324.72)" d="M 126.076 151.65 L 192.116 103.89 L 196.862 110.454 L 130.823 158.214 Z " fill="#ffffff"/>
<path transform="matrix(.2,0,0,.2,747.58999,1324.72)" d="M 125.826999 143.874 L 130.8 137.48 L 194.819 187.268 L 189.846 193.662 Z " fill="#ffffff"/>
<path transform="matrix(.2,0,0,.2,747.58999,1324.72)" d="M 344.9 182.1 L 335.9 182.1 L 335.9 175.3 L 335.7 175.3 C 334 177.8 331.6 179.8 328.6 181.2 C 325.6 182.6 322.5 183.3 319.3 183.3 C 315.6 183.3 312.3 182.7 309.4 181.4 C 306.4 180.1 303.9 178.4 301.8 176.1 C 299.7 173.8 298.1 171.2 297 168.2 C 295.9 165.2 295.3 161.9 295.3 158.4 C 295.3 154.9 295.9 151.6 297 148.6 C 298.1 145.6 299.7 142.9 301.8 140.7 C 303.9 138.5 306.4 136.7 309.4 135.5 C 312.4 134.2 315.7 133.6 319.3 133.6 C 322.7 133.6 325.9 134.3 328.9 135.7 C 331.9 137.1 334.2 139.1 335.8 141.5 L 336 141.5 L 336 106.6 L 345 106.6 L 345 182.1 L 344.9 182.1 Z M 320.3 174.9 C 322.7 174.9 324.9 174.5 326.8 173.7 C 328.7 172.9 330.4 171.7 331.7 170.3 C 333 168.9 334.1 167.1 334.8 165.1 C 335.5 163.1 335.9 160.9 335.9 158.5 C 335.9 156.1 335.5 153.9 334.8 151.9 C 334.1 149.9 333 148.1 331.7 146.7 C 330.4 145.3 328.7 144.1 326.8 143.3 C 324.9 142.5 322.7 142.1 320.3 142.1 C 317.9 142.1 315.7 142.5 313.8 143.3 C 311.9 144.1 310.2 145.3 308.9 146.7 C 307.6 148.1 306.5 149.9 305.8 151.9 C 305.1 153.9 304.7 156.1 304.7 158.5 C 304.7 160.9 305.1 163.1 305.8 165.1 C 306.5 167.1 307.6 168.9 308.9 170.3 C 310.2 171.7 311.9 172.9 313.8 173.7 C 315.8 174.5 317.9 174.9 320.3 174.9 Z M 358.4 106.6 L 367.4 106.6 L 367.4 141.5 L 367.6 141.5 C 369.2 139 371.5 137.1 374.5 135.7 C 377.5 134.3 380.7 133.6 384.1 133.6 C 387.8 133.6 391.1 134.2 394 135.5 C 397 136.8 399.5 138.5 401.6 140.7 C 403.7 142.9 405.3 145.6 406.4 148.6 C 407.5 151.6 408.1 154.9 408.1 158.4 C 408.1 161.9 407.5 165.2 406.4 168.2 C 405.3 171.2 403.7 173.8 401.6 176.1 C 399.5 178.4 397 180.1 394 181.4 C 391 182.7 387.7 183.3 384.1 183.3 C 380.9 183.3 377.8 182.6 374.8 181.2 C 371.8 179.8 369.4 177.8 367.7 175.3 L 367.5 175.3 L 367.5 182.1 L 358.5 182.1 L 358.5 106.6 L 358.4 106.6 Z M 383 174.9 C 385.4 174.9 387.6 174.5 389.5 173.7 C 391.4 172.9 393.1 171.7 394.4 170.3 C 395.7 168.9 396.8 167.1 397.5 165.1 C 398.2 163.1 398.6 160.9 398.6 158.5 C 398.6 156.1 398.2 153.9 397.5 151.9 C 396.8 149.9 395.7 148.1 394.4 146.7 C 393.1 145.3 391.4 144.1 389.5 143.3 C 387.6 142.5 385.4 142.1 383 142.1 C 380.6 142.1 378.4 142.5 376.5 143.3 C 374.6 144.1 372.9 145.3 371.6 146.7 C 370.3 148.1 369.2 149.9 368.5 151.9 C 367.8 153.9 367.4 156.1 367.4 158.5 C 367.4 160.9 367.8 163.1 368.5 165.1 C 369.2 167.1 370.3 168.9 371.6 170.3 C 372.9 171.7 374.6 172.9 376.5 173.7 C 378.4 174.5 380.6 174.9 383 174.9 Z M 466.9 182.1 L 457.9 182.1 L 457.9 175.3 L 457.7 175.3 C 456 177.8 453.6 179.8 450.6 181.2 C 447.6 182.6 444.5 183.3 441.3 183.3 C 437.6 183.3 434.3 182.7 431.4 181.4 C 428.4 180.1 425.9 178.4 423.8 176.1 C 421.7 173.8 420.1 171.2 419 168.2 C 417.9 165.2 417.3 161.9 417.3 158.4 C 417.3 154.9 417.9 151.6 419 148.6 C 420.1 145.6 421.7 142.9 423.8 140.7 C 425.9 138.5 428.4 136.7 431.4 135.5 C 434.4 134.2 437.7 133.6 441.3 133.6 C 444.7 133.6 447.9 134.3 450.9 135.7 C 453.9 137.1 456.2 139.1 457.8 141.5 L 458 141.5 L 458 106.6 L 467 106.6 L 467 182.1 L 466.9 182.1 Z M 442.3 174.9 C 444.7 174.9 446.9 174.5 448.8 173.7 C 450.7 172.9 452.4 171.7 453.7 170.3 C 455 168.9 456.1 167.1 456.8 165.1 C 457.5 163.1 457.9 160.9 457.9 158.5 C 457.9 156.1 457.5 153.9 456.8 151.9 C 456.1 149.9 455 148.1 453.7 146.7 C 452.4 145.3 450.7 144.1 448.8 143.3 C 446.9 142.5 444.7 142.1 442.3 142.1 C 439.9 142.1 437.7 142.5 435.8 143.3 C 433.9 144.1 432.2 145.3 430.9 146.7 C 429.6 148.1 428.5 149.9 427.8 151.9 C 427.1 153.9 426.7 156.1 426.7 158.5 C 426.7 160.9 427.1 163.1 427.8 165.1 C 428.5 167.1 429.6 168.9 430.9 170.3 C 432.2 171.7 433.9 172.9 435.8 173.7 C 437.7 174.5 439.9 174.9 442.3 174.9 Z M 479 117.8 C 479 116 479.6 114.5 480.9 113.2 C 482.2 111.9 483.7 111.3 485.5 111.3 C 487.3 111.3 488.8 111.9 490.1 113.2 C 491.4 114.5 492 116 492 117.8 C 492 119.6 491.4 121.1 490.1 122.4 C 488.8 123.7 487.3 124.3 485.5 124.3 C 483.7 124.3 482.2 123.7 480.9 122.4 C 479.7 121.1 479 119.6 479 117.8 Z M 481.1 134.8 L 490.1 134.8 L 490.1 182.1 L 481.1 182.1 L 481.1 134.8 Z M 504.6 140.5 C 507.1 138.2 510.1 136.4 513.4 135.3 C 516.7 134.1 520.1 133.6 523.4 133.6 C 526.9 133.6 529.8 134 532.3 134.9 C 534.8 135.8 536.8 136.9 538.4 138.4 C 540 139.9 541.2 141.5 541.9 143.4 C 542.7 145.3 543 147.3 543 149.3 L 543 173.5 C 543 175.2 543 176.7 543.1 178.1 C 543.2 179.5 543.3 180.8 543.4 182.1 L 535.4 182.1 C 535.2 179.7 535.1 177.3 535.1 174.9 L 535 174.9 C 533 178 530.6 180.1 527.9 181.4 C 525.2 182.7 522 183.3 518.4 183.3 C 516.2 183.3 514.1 183 512.1 182.4 C 510.1 181.8 508.4 180.9 506.9 179.7 C 505.4 178.5 504.2 177 503.4 175.3 C 502.5 173.5 502.1 171.5 502.1 169.2 C 502.1 166.1 502.8 163.6 504.1 161.5 C 505.5 159.4 507.3 157.8 509.7 156.5 C 512.1 155.2 514.8 154.3 518 153.7 C 521.2 153.1 524.5 152.9 528.1 152.9 L 534.7 152.9 L 534.7 150.9 C 534.7 149.7 534.5 148.5 534 147.3 C 533.5 146.1 532.8 145 531.9 144.1 C 531 143.1 529.8 142.4 528.4 141.8 C 527 141.2 525.3 141 523.4 141 C 521.7 141 520.2 141.2 518.9 141.5 C 517.6 141.8 516.4 142.2 515.4 142.7 C 514.3 143.2 513.4 143.8 512.5 144.4 C 511.6 145.1 510.8 145.7 510 146.3 L 504.6 140.5 Z M 529.9 159.3 C 527.8 159.3 525.6 159.4 523.4 159.6 C 521.2 159.8 519.1 160.3 517.3 160.9 C 515.5 161.6 514 162.5 512.8 163.7 C 511.6 164.9 511.1 166.4 511.1 168.3 C 511.1 171 512 173 513.8 174.2 C 515.6 175.4 518.1 176 521.2 176 C 523.7 176 525.8 175.6 527.5 174.8 C 529.2 174 530.6 172.9 531.7 171.6 C 532.8 170.3 533.5 168.8 534 167.2 C 534.5 165.6 534.7 164 534.7 162.4 L 534.7 159.4 L 529.9 159.4 L 529.9 159.3 Z M 603.6 181.7 C 603.6 185.3 603 188.6 601.8 191.5 C 600.6 194.5 598.8 197 596.6 199.2 C 594.3 201.4 591.6 203 588.4 204.2 C 585.2 205.4 581.7 206 577.8 206 C 573.3 206 569.1 205.4 565.4 204.1 C 561.6 202.8 558.1 200.6 554.7 197.5 L 560.8 189.9 C 563.1 192.4 565.7 194.3 568.4 195.6 C 571.1 196.9 574.2 197.5 577.7 197.5 C 581 197.5 583.8 197 586 196.1 C 588.2 195.1 589.9 193.9 591.2 192.4 C 592.5 190.9 593.4 189.1 593.9 187.2 C 594.4 185.2 594.7 183.3 594.7 181.3 L 594.7 174.3 L 594.4 174.3 C 592.7 177.2 590.3 179.3 587.4 180.6 C 584.4 182 581.3 182.6 578.1 182.6 C 574.6 182.6 571.4 182 568.5 180.8 C 565.5 179.6 563 177.9 560.9 175.7 C 558.8 173.5 557.1 171 555.9 168 C 554.7 165 554.1 161.8 554.1 158.4 C 554.1 154.9 554.7 151.7 555.8 148.7 C 556.9 145.7 558.5 143 560.6 140.8 C 562.7 138.5 565.2 136.8 568.2 135.5 C 571.2 134.2 574.5 133.6 578.1 133.6 C 581.3 133.6 584.4 134.3 587.4 135.7 C 590.4 137.1 592.8 139.1 594.5 141.6 L 594.7 141.6 L 594.7 134.8 L 603.7 134.8 L 603.6 181.7 Z M 579.1 141.9 C 576.7 141.9 574.5 142.3 572.6 143.1 C 570.7 143.9 569 145.1 567.7 146.5 C 566.4 147.9 565.3 149.7 564.6 151.7 C 563.9 153.7 563.5 155.9 563.5 158.3 C 563.5 163.1 564.9 166.9 567.7 169.8 C 570.5 172.7 574.3 174.1 579.1 174.1 C 583.9 174.1 587.7 172.7 590.5 169.8 C 593.3 166.9 594.7 163.1 594.7 158.3 C 594.7 155.9 594.3 153.7 593.6 151.7 C 592.9 149.7 591.8 147.9 590.5 146.5 C 589.2 145.1 587.5 143.9 585.6 143.1 C 583.6 142.4 581.5 141.9 579.1 141.9 Z M 617.2 134.8 L 626.2 134.8 L 626.2 142.1 L 626.4 142.1 C 627 140.8 627.8 139.7 628.8 138.7 C 629.8 137.7 630.9 136.8 632.1 136.1 C 633.3 135.4 634.7 134.8 636.1 134.4 C 637.6 134 639 133.8 640.5 133.8 C 642 133.8 643.3 134 644.5 134.4 L 644.1 144.1 C 643.4 143.9 642.6 143.7 641.9 143.6 C 641.2 143.5 640.4 143.4 639.7 143.4 C 635.3 143.4 631.9 144.6 629.6 147.1 C 627.3 149.6 626.1 153.4 626.1 158.6 L 626.1 182.4 L 617.1 182.4 L 617.2 134.8 Z M 654.3 140.5 C 656.8 138.2 659.8 136.4 663.1 135.3 C 666.4 134.1 669.8 133.6 673.1 133.6 C 676.6 133.6 679.5 134 682 134.9 C 684.5 135.8 686.5 136.9 688.1 138.4 C 689.7 139.9 690.9 141.5 691.6 143.4 C 692.4 145.3 692.7 147.3 692.7 149.3 L 692.7 173.5 C 692.7 175.2 692.7 176.7 692.8 178.1 C 692.9 179.5 693 180.8 693.1 182.1 L 685.1 182.1 C 684.9 179.7 684.8 177.3 684.8 174.9 L 684.6 174.9 C 682.6 178 680.2 180.1 677.5 181.4 C 674.8 182.7 671.6 183.3 668 183.3 C 665.8 183.3 663.7 183 661.7 182.4 C 659.7 181.8 658 180.9 656.5 179.7 C 655 178.5 653.8 177 653 175.3 C 652.1 173.5 651.7 171.5 651.7 169.2 C 651.7 166.1 652.4 163.6 653.7 161.5 C 655.1 159.4 656.9 157.8 659.3 156.5 C 661.7 155.2 664.4 154.3 667.6 153.7 C 670.8 153.1 674.1 152.9 677.7 152.9 L 684.3 152.9 L 684.3 150.9 C 684.3 149.7 684.1 148.5 683.6 147.3 C 683.1 146.1 682.4 145 681.5 144.1 C 680.6 143.1 679.4 142.4 678 141.8 C 676.6 141.2 674.9 141 673 141 C 671.3 141 669.8 141.2 668.5 141.5 C 667.2 141.8 666 142.2 665 142.7 C 663.9 143.2 663 143.8 662.1 144.4 C 661.2 145.1 660.4 145.7 659.6 146.3 L 654.3 140.5 Z M 679.7 159.3 C 677.6 159.3 675.4 159.4 673.2 159.6 C 671 159.8 668.9 160.3 667.1 160.9 C 665.3 161.6 663.8 162.5 662.6 163.7 C 661.4 164.9 660.9 166.4 660.9 168.3 C 660.9 171 661.8 173 663.6 174.2 C 665.4 175.4 667.9 176 671 176 C 673.5 176 675.6 175.6 677.3 174.8 C 679 174 680.4 172.9 681.5 171.6 C 682.6 170.3 683.3 168.8 683.8 167.2 C 684.3 165.6 684.5 164 684.5 162.4 L 684.5 159.4 L 679.7 159.4 L 679.7 159.3 Z M 705.9 134.8 L 714.3 134.8 L 714.3 142.2 L 714.5 142.2 C 714.7 141.5 715.2 140.7 716 139.7 C 716.8 138.7 717.9 137.8 719.2 136.9 C 720.5 136 722 135.2 723.8 134.6 C 725.6 134 727.5 133.7 729.6 133.7 C 733.1 133.7 736.1 134.4 738.5 135.9 C 740.9 137.4 742.9 139.6 744.4 142.5 C 745.9 139.6 748.1 137.4 750.9 135.9 C 753.7 134.4 756.5 133.7 759.4 133.7 C 763.1 133.7 766.1 134.3 768.4 135.5 C 770.7 136.7 772.6 138.3 773.9 140.2 C 775.2 142.2 776.1 144.4 776.6 146.9 C 777.1 149.4 777.3 152 777.3 154.6 L 777.3 182.2 L 768.3 182.2 L 768.3 155.8 C 768.3 154 768.2 152.3 768 150.6 C 767.8 148.9 767.3 147.5 766.6 146.2 C 765.9 144.9 764.8 143.9 763.5 143.2 C 762.2 142.4 760.4 142.1 758.2 142.1 C 753.9 142.1 750.8 143.4 748.9 146.1 C 747 148.8 746.1 152.2 746.1 156.4 L 746.1 182.3 L 737.1 182.3 L 737.1 157.5 C 737.1 155.2 737 153.2 736.8 151.3 C 736.6 149.4 736.1 147.8 735.4 146.5 C 734.7 145.1 733.7 144.1 732.4 143.3 C 731.1 142.5 729.4 142.2 727.2 142.2 C 725.6 142.2 724.1 142.5 722.6 143.1 C 721.1 143.7 719.8 144.7 718.7 145.9 C 717.6 147.2 716.7 148.8 716 150.7 C 715.3 152.7 715 155 715 157.6 L 715 182.2 L 706 182.2 L 706 134.8 L 705.9 134.8 Z " fill="#2161cf"/>
<path transform="matrix(.2,0,0,.2,747.58999,1324.72)" d="M 798.1 182.7 C 796.3 182.7 794.8 182.1 793.5 180.8 C 792.2 179.5 791.6 178 791.6 176.2 C 791.6 174.4 792.2 172.9 793.5 171.6 C 794.8 170.3 796.3 169.7 798.1 169.7 C 799.9 169.7 801.4 170.3 802.7 171.6 C 804 172.9 804.6 174.4 804.6 176.2 C 804.6 178 804 179.5 802.7 180.8 C 801.4 182 799.9 182.7 798.1 182.7 Z M 817.3 117.799999 C 817.3 116 817.9 114.5 819.2 113.2 C 820.5 111.9 822 111.299999 823.8 111.299999 C 825.6 111.299999 827.1 111.9 828.4 113.2 C 829.7 114.5 830.3 116 830.3 117.799999 C 830.3 119.6 829.7 121.1 828.4 122.4 C 827.1 123.7 825.6 124.299999 823.8 124.299999 C 822 124.299999 820.5 123.7 819.2 122.4 C 818 121.1 817.3 119.6 817.3 117.799999 Z M 819.4 134.8 L 828.4 134.8 L 828.4 182.1 L 819.4 182.1 L 819.4 134.8 Z M 840.4 158.4 C 840.4 154.9 841 151.7 842.3 148.7 C 843.6 145.7 845.4 143.1 847.6 140.8 C 849.9 138.5 852.5 136.8 855.6 135.5 C 858.7 134.2 862 133.6 865.5 133.6 C 869 133.6 872.3 134.2 875.4 135.5 C 878.5 136.8 881.1 138.6 883.4 140.8 C 885.7 143.1 887.4 145.7 888.7 148.7 C 890 151.7 890.6 154.9 890.6 158.4 C 890.6 161.9 890 165.1 888.7 168.1 C 887.4 171.1 885.6 173.8 883.4 176 C 881.1 178.2 878.5 180 875.4 181.3 C 872.3 182.6 869 183.2 865.5 183.2 C 862 183.2 858.7 182.6 855.6 181.3 C 852.5 180 849.9 178.2 847.6 176 C 845.3 173.8 843.6 171.1 842.3 168.1 C 841.1 165.1 840.4 161.9 840.4 158.4 Z M 850 158.4 C 850 160.8 850.4 163 851.1 165 C 851.8 167 852.9 168.8 854.2 170.2 C 855.5 171.6 857.2 172.8 859.1 173.6 C 861 174.4 863.2 174.8 865.6 174.8 C 868 174.8 870.2 174.4 872.1 173.6 C 874 172.8 875.7 171.6 877 170.2 C 878.3 168.8 879.4 167 880.1 165 C 880.8 163 881.2 160.8 881.2 158.4 C 881.2 156 880.8 153.8 880.1 151.8 C 879.4 149.8 878.3 148 877 146.6 C 875.7 145.2 874 144 872.1 143.2 C 870.2 142.4 868 142 865.6 142 C 863.2 142 861 142.4 859.1 143.2 C 857.2 144 855.5 145.2 854.2 146.6 C 852.9 148 851.8 149.8 851.1 151.8 C 850.4 153.8 850 156 850 158.4 Z " fill="#428cff"/>
<path transform="matrix(.8006388,0,0,.8006388,114.071758,-81.331668)" stroke-width="3" stroke-linecap="butt" stroke-miterlimit="4" stroke-linejoin="miter" fill="none" stroke="#619ccc" d="M 207.90111 1246.5 L 216 1246.5 C 220.41828 1246.5 224 1242.9182 224 1238.5 L 224 323.5 C 224 319.08174 220.41828 315.5 216 315.5 L 130.02938 315.5 "/>
<text xml:space="preserve" transform="matrix(1.341835 0 0 1.341835 -96.439769 114.30646)" font-size="5.9667456" font-family="Helvetica"><tspan y="605.41439" x="284.6435">1</tspan></text>
<text xml:space="preserve" transform="matrix(1.341835 0 0 1.341835 -96.439769 114.30646)" font-size="5.9667456" font-family="Helvetica"><tspan y="39.170179" x="238.6776">*</tspan></text>
<path transform="matrix(.8006388,0,0,.8006388,114.071758,-81.331668)" stroke-width="3" stroke-linecap="butt" stroke-miterlimit="4" stroke-linejoin="miter" fill="none" stroke="#619ccc" d="M 99.70102 1070.5 L 140 1070.5 C 144.41828 1070.5 148 1066.9182 148 1062.5 L 148 352.5 C 148 348.08174 144.41828 344.5 140 344.5 L 130.02938 344.5 "/>
<text xml:space="preserve" transform="matrix(1.341835 0 0 1.341835 -96.439769 114.30646)" font-size="5.9667456" font-family="Helvetica"><tspan y="500.39964" x="220.08325">1</tspan></text>
<text xml:space="preserve" transform="matrix(1.341835 0 0 1.341835 -96.439769 114.30646)" font-size="5.9667456" font-family="Helvetica"><tspan y="56.47374" x="238.6776">*</tspan></text>
<path transform="matrix(.8006388,0,0,.8006388,114.071758,-81.331668)" stroke-width="3" stroke-linecap="butt" stroke-miterlimit="4" stroke-linejoin="miter" fill="none" stroke="#619ccc" d="M 607.93099 387.5 L 656 387.5 C 660.4183 387.5 664 391.08174 664 395.5 L 664 654.5 C 664 658.9183 667.5817 662.5 672 662.5 L 728 662.5 "/>
<text xml:space="preserve" transform="matrix(1.341835 0 0 1.341835 -96.439769 114.30646)" font-size="5.9667456" font-family="Helvetica"><tspan y="256.9564" x="584.23318">1</tspan></text>
<text xml:space="preserve" transform="matrix(1.341835 0 0 1.341835 -96.439769 114.30646)" font-size="5.9667456" font-family="Helvetica"><tspan y="82.130748" x="523.82937">*</tspan></text>
<path transform="matrix(.8006388,0,0,.8006388,114.071758,-81.331668)" stroke-width="3" stroke-linecap="butt" stroke-miterlimit="4" stroke-linejoin="miter" fill="none" stroke="#619ccc" d="M 130.02938 170.5 L 232 170.5 C 236.41828 170.5 240 174.08173 240 178.5 L 240 408.5 C 240 412.91828 243.58173 416.5 248 416.5 L 356 416.5 "/>
<text xml:space="preserve" transform="matrix(1.341835 0 0 1.341835 -96.439769 114.30646)" font-size="5.9667456" font-family="Helvetica"><tspan y="-47.347639" x="238.1794">1</tspan></text>
<text xml:space="preserve" transform="matrix(1.341835 0 0 1.341835 -96.439769 114.30646)" font-size="5.9667456" font-family="Helvetica"><tspan y="110.17445" x="362.7684">*</tspan></text>
<path transform="matrix(.8006388,0,0,.8006388,114.071758,-81.331668)" stroke-width="3" stroke-linecap="butt" stroke-miterlimit="4" stroke-linejoin="miter" fill="none" stroke="#619ccc" d="M 130.02938 170.5 L 232 170.5 C 236.41828 170.5 240 174.08173 240 178.5 L 240 437.5 C 240 441.91828 243.58173 445.5 248 445.5 L 356 445.5 "/>
<text xml:space="preserve" transform="matrix(1.341835 0 0 1.341835 -96.439769 114.30646)" font-size="5.9667456" font-family="Helvetica"><tspan y="-47.347639" x="238.1794">1</tspan></text>
<text xml:space="preserve" transform="matrix(1.341835 0 0 1.341835 -96.439769 114.30646)" font-size="5.9667456" font-family="Helvetica"><tspan y="127.47801" x="362.7684">*</tspan></text>
<path transform="matrix(.8006388,0,0,.8006388,114.071758,-81.331668)" stroke-width="3" stroke-linecap="butt" stroke-miterlimit="4" stroke-linejoin="miter" fill="none" stroke="#619ccc" d="M 207.90111 1246.5 L 406.5 1246.5 C 409.53758 1246.5 412 1248.9624 412 1252 C 412 1255.0376 414.46244 1257.5 417.5 1257.5 L 620 1257.5 "/>
<text xml:space="preserve" transform="matrix(1.341835 0 0 1.341835 -96.439769 114.30646)" font-size="5.9667456" font-family="Helvetica"><tspan y="594.6742" x="284.6435">1</tspan></text>
<text xml:space="preserve" transform="matrix(1.341835 0 0 1.341835 -96.439769 114.30646)" font-size="5.9667456" font-family="Helvetica"><tspan y="611.9778" x="520.29049">*</tspan></text>
<path transform="matrix(.8006388,0,0,.8006388,114.071758,-81.331668)" stroke-width="3" stroke-linecap="butt" stroke-miterlimit="4" stroke-linejoin="miter" fill="none" stroke="#619ccc" d="M 542.1236 855.5 L 624 855.5 C 628.4183 855.5 632 851.9183 632 847.5 L 632 670.5 C 632 666.0817 635.5817 662.5 640 662.5 L 728 662.5 "/>
<text xml:space="preserve" transform="matrix(1.341835 0 0 1.341835 -96.439769 114.30646)" font-size="5.9667456" font-family="Helvetica"><tspan y="246.21625" x="584.23318">1</tspan></text>
<text xml:space="preserve" transform="matrix(1.341835 0 0 1.341835 -96.439769 114.30646)" font-size="5.9667456" font-family="Helvetica"><tspan y="372.1146" x="484.56376">*</tspan></text>
<path transform="matrix(.8006388,0,0,.8006388,114.071758,-81.331668)" stroke-width="3" stroke-linecap="butt" stroke-miterlimit="4" stroke-linejoin="miter" fill="none" stroke="#619ccc" d="M 542.1236 884.5 L 572 884.5 C 576.4183 884.5 580 888.0817 580 892.5 L 580 1162.5 C 580 1166.9182 583.5817 1170.5 588 1170.5 L 620 1170.5 "/>
<text xml:space="preserve" transform="matrix(1.341835 0 0 1.341835 -96.439769 114.30646)" font-size="5.9667456" font-family="Helvetica"><tspan y="560.0671" x="519.7923">1</tspan></text>
<text xml:space="preserve" transform="matrix(1.341835 0 0 1.341835 -96.439769 114.30646)" font-size="5.9667456" font-family="Helvetica"><tspan y="378.678" x="484.56376">*</tspan></text>
<path transform="matrix(.8006388,0,0,.8006388,114.071758,-81.331668)" stroke-width="3" stroke-linecap="butt" stroke-miterlimit="4" stroke-linejoin="miter" fill="none" stroke="#619ccc" d="M 130.02938 170.5 L 192 170.5 C 196.41828 170.5 200 174.08173 200 178.5 L 200 905.5 C 200 909.9183 203.58173 913.5 208 913.5 L 272 913.5 "/>
<text xml:space="preserve" transform="matrix(1.341835 0 0 1.341835 -96.439769 114.30646)" font-size="5.9667456" font-family="Helvetica"><tspan y="-47.347639" x="238.1794">1</tspan></text>
<text xml:space="preserve" transform="matrix(1.341835 0 0 1.341835 -96.439769 114.30646)" font-size="5.9667456" font-family="Helvetica"><tspan y="406.7217" x="312.64775">*</tspan></text>
<path transform="matrix(.8006388,0,0,.8006388,114.071758,-81.331668)" stroke-width="3" stroke-linecap="butt" stroke-miterlimit="4" stroke-linejoin="miter" fill="none" stroke="#619ccc" d="M 99.70102 1070.5 L 176 1070.5 C 180.41828 1070.5 184 1066.9182 184 1062.5 L 184 950.5 C 184 946.0817 187.58173 942.5 192 942.5 L 272 942.5 "/>
<text xml:space="preserve" transform="matrix(1.341835 0 0 1.341835 -96.439769 114.30646)" font-size="5.9667456" font-family="Helvetica"><tspan y="500.39964" x="220.08325">1</tspan></text>
<text xml:space="preserve" transform="matrix(1.341835 0 0 1.341835 -96.439769 114.30646)" font-size="5.9667456" font-family="Helvetica"><tspan y="413.28514" x="312.64775">*</tspan></text>
<path transform="matrix(.8006388,0,0,.8006388,114.071758,-81.331668)" stroke-width="3" stroke-linecap="butt" stroke-miterlimit="4" stroke-linejoin="miter" fill="none" stroke="#619ccc" d="M 99.70102 1070.5 L 176 1070.5 C 180.41828 1070.5 184 1066.9182 184 1062.5 L 184 979.5 C 184 975.0817 187.58173 971.5 192 971.5 L 272 971.5 "/>
<text xml:space="preserve" transform="matrix(1.341835 0 0 1.341835 -96.439769 114.30646)" font-size="5.9667456" font-family="Helvetica"><tspan y="500.39964" x="220.08325">1</tspan></text>
<text xml:space="preserve" transform="matrix(1.341835 0 0 1.341835 -96.439769 114.30646)" font-size="5.9667456" font-family="Helvetica"><tspan y="430.58869" x="312.64775">*</tspan></text>
<path transform="matrix(.8006388,0,0,.8006388,114.071758,-81.331668)" stroke-width="3" stroke-linecap="butt" stroke-miterlimit="4" stroke-linejoin="miter" fill="none" stroke="#619ccc" d="M 536.8475 1111.5 L 624 1111.5 C 628.4183 1111.5 632 1107.9182 632 1103.5 L 632 670.5 C 632 666.0817 635.5817 662.5 640 662.5 L 728 662.5 "/>
<text xml:space="preserve" transform="matrix(1.341835 0 0 1.341835 -96.439769 114.30646)" font-size="5.9667456" font-family="Helvetica"><tspan y="246.21625" x="584.23318">1</tspan></text>
<text xml:space="preserve" transform="matrix(1.341835 0 0 1.341835 -96.439769 114.30646)" font-size="5.9667456" font-family="Helvetica"><tspan y="524.8633" x="481.41563">*</tspan></text>
<path transform="matrix(.8006388,0,0,.8006388,114.071758,-81.331668)" stroke-width="3" stroke-linecap="butt" stroke-miterlimit="4" stroke-linejoin="miter" fill="none" stroke="#619ccc" d="M 207.90111 1246.5 L 256 1246.5 C 260.41828 1246.5 264 1242.9182 264 1238.5 L 264 1148.5 C 264 1144.0817 267.58174 1140.5 272 1140.5 L 324 1140.5 "/>
<text xml:space="preserve" transform="matrix(1.341835 0 0 1.341835 -96.439769 114.30646)" font-size="5.9667456" font-family="Helvetica"><tspan y="605.41439" x="284.6435">1</tspan></text>
<text xml:space="preserve" transform="matrix(1.341835 0 0 1.341835 -96.439769 114.30646)" font-size="5.9667456" font-family="Helvetica"><tspan y="531.4267" x="343.6748">*</tspan></text>
<path transform="matrix(.8006388,0,0,.8006388,114.071758,-81.331668)" stroke-width="3" stroke-linecap="butt" stroke-miterlimit="4" stroke-linejoin="miter" fill="none" stroke="#619ccc" d="M 607.93099 503.5 L 676 503.5 C 680.4183 503.5 684 499.91828 684 495.5 L 684 266.5 C 684 262.08174 687.5817 258.5 692 258.5 L 768 258.5 "/>
<text xml:space="preserve" transform="matrix(1.341835 0 0 1.341835 -96.439769 114.30646)" font-size="5.9667456" font-family="Helvetica"><tspan y="162.08515" x="523.82937">*</tspan></text>
<text xml:space="preserve" transform="matrix(1.341835 0 0 1.341835 -96.439769 114.30646)" font-size="5.9667456" font-family="Helvetica"><tspan y="5.1597259" x="608.1001">1</tspan></text>
<path transform="matrix(.8006388,0,0,.8006388,114.071758,-81.331668)" stroke-width="3" stroke-linecap="butt" stroke-miterlimit="4" stroke-linejoin="miter" fill="none" stroke="#619ccc" d="M 607.93099 532.5 L 716 532.5 C 720.4183 532.5 724 528.9183 724 524.5 L 724 502.5 C 724 498.08174 727.5817 494.5 732 494.5 L 844 494.5 "/>
<text xml:space="preserve" transform="matrix(1.341835 0 0 1.341835 -96.439769 114.30646)" font-size="5.9667456" font-family="Helvetica"><tspan y="179.3887" x="523.82937">*</tspan></text>
<text xml:space="preserve" transform="matrix(1.341835 0 0 1.341835 -96.439769 114.30646)" font-size="5.9667456" font-family="Helvetica"><tspan y="145.97493" x="653.4474">1</tspan></text>
<path transform="matrix(.8006388,0,0,.8006388,114.071758,-81.331668)" stroke-width="3" stroke-linecap="butt" stroke-miterlimit="4" stroke-linejoin="miter" fill="none" stroke="#619ccc" d="M 607.93099 474.5 L 712 474.5 C 716.4183 474.5 720 470.91828 720 466.5 L 720 386.5 C 720 382.08174 723.5817 378.5 728 378.5 L 840 378.5 "/>
<text xml:space="preserve" transform="matrix(1.341835 0 0 1.341835 -96.439769 114.30646)" font-size="5.9667456" font-family="Helvetica"><tspan y="144.78157" x="523.82937">*</tspan></text>
<text xml:space="preserve" transform="matrix(1.341835 0 0 1.341835 -96.439769 114.30646)" font-size="5.9667456" font-family="Helvetica"><tspan y="76.76067" x="651.06069">1</tspan></text>
<path transform="matrix(.8006388,0,0,.8006388,114.071758,879.435)" d="M 0 0 L 207.90111 0 L 207.90111 32 L 0 32 L 0 0 Z " fill="#306996"/>
<text fill="#ffffff" xml:space="preserve" transform="matrix(1.341835 0 0 1.341835 -96.439769 114.30646)" font-size="7.756769" font-family="Helvetica" font-weight="bold"><tspan y="582.4722" x="164.64009 169.37947 173.69223 178.43161 182.74437 185.76175 188.34476 192.65752 199.55329 203.86605 208.60543 211.18843">departamento</tspan></text>
<path transform="matrix(.8006388,0,0,.8006388,114.071758,905.05538)" d="M 0 0 L 207.90111 0 L 207.90111 29 L 0 29 L 0 0 Z " fill="#deedf2"/>
<text xml:space="preserve" transform="matrix(1.341835 0 0 1.341835 -96.439769 114.30646)" font-size="7.1600949" font-family="Helvetica"><tspan y="600.462" x="164.64009 166.22963">id</tspan></text>
<text fill="#a9a9a9" xml:space="preserve" transform="matrix(1.341835 0 0 1.341835 -96.439769 114.30646)" font-size="7.1600949" font-family="Helvetica"><tspan y="600.462" x="265.0252 266.61476 270.59577">int</tspan></text>
<path transform="matrix(.8006388,0,0,.8006388,114.071758,928.2739)" d="M 0 0 L 207.90111 0 L 207.90111 29 L 0 29 L 0 0 Z " fill="#f7f7f7"/>
<text fill="#828282" xml:space="preserve" transform="matrix(1.341835 0 0 1.341835 -96.439769 114.30646)" font-size="7.1600949" font-family="Helvetica"><tspan y="617.7655" x="164.64009 168.62111 172.60213 176.58315 180.56417 182.94847 184.93898 188.92 194.88436 198.86537 202.84639 204.8369">departamento</tspan></text>
<text fill="#a9a9a9" xml:space="preserve" transform="matrix(1.341835 0 0 1.341835 -96.439769 114.30646)" font-size="7.1600949" font-family="Helvetica"><tspan y="617.7655" x="249.8974 253.47745 257.45848 259.84278 263.42283 267.40385 271.38487">varchar</tspan></text>
<path transform="matrix(.8006388,0,0,.8006388,11.590004,17.947548)" d="M 0 0 L 258.02937 0 L 258.02937 32 L 0 32 L 0 0 Z " fill="#306996"/>
<text fill="#ffffff" xml:space="preserve" transform="matrix(1.341835 0 0 1.341835 -96.439769 114.30646)" font-size="7.756769" font-family="Helvetica" font-weight="bold"><tspan y="-59.549634" x="88.26575 92.578517 96.89128 99.90866 104.64805 109.387439 114.12682 118.43959 121.45697 124.03998 128.77936">aeropuertos</tspan></text>
<path transform="matrix(.8006388,0,0,.8006388,11.590004,43.567995)" d="M 0 0 L 258.02937 0 L 258.02937 29 L 0 29 L 0 0 Z " fill="#deedf2"/>
<text xml:space="preserve" transform="matrix(1.341835 0 0 1.341835 -96.439769 114.30646)" font-size="7.1600949" font-family="Helvetica"><tspan y="-41.559896" x="88.26575 89.855289">id</tspan></text>
<text fill="#a9a9a9" xml:space="preserve" transform="matrix(1.341835 0 0 1.341835 -96.439769 114.30646)" font-size="7.1600949" font-family="Helvetica"><tspan y="-41.559896" x="218.56111 220.15065 224.13167">int</tspan></text>
<path transform="matrix(.8006388,0,0,.8006388,11.590004,66.786518)" d="M 0 0 L 258.02937 0 L 258.02937 29 L 0 29 L 0 0 Z " fill="#f7f7f7"/>
<text fill="#828282" xml:space="preserve" transform="matrix(1.341835 0 0 1.341835 -96.439769 114.30646)" font-size="7.1600949" font-family="Helvetica"><tspan y="-24.25633" x="88.26575 91.845798 93.43533 97.41634 99.00588">sigla</tspan></text>
<text fill="#a9a9a9" xml:space="preserve" transform="matrix(1.341835 0 0 1.341835 -96.439769 114.30646)" font-size="7.1600949" font-family="Helvetica"><tspan y="-24.25633" x="203.4333 207.01335 210.99437 213.37868 216.95873 220.93975 224.92076">varchar</tspan></text>
<path transform="matrix(.8006388,0,0,.8006388,11.590004,90.00504)" d="M 0 0 L 258.02937 0 L 258.02937 29 L 0 29 L 0 0 Z " fill="#f7f7f7"/>
<text fill="#828282" xml:space="preserve" transform="matrix(1.341835 0 0 1.341835 -96.439769 114.30646)" font-size="7.1600949" font-family="Helvetica"><tspan y="-6.9527685" x="88.26575 89.855289 93.836299 95.826808">iata</tspan></text>
<text fill="#a9a9a9" xml:space="preserve" transform="matrix(1.341835 0 0 1.341835 -96.439769 114.30646)" font-size="7.1600949" font-family="Helvetica"><tspan y="-6.9527685" x="203.4333 207.01335 210.99437 213.37868 216.95873 220.93975 224.92076">varchar</tspan></text>
<path transform="matrix(.8006388,0,0,.8006388,11.590004,113.22357)" d="M 0 0 L 258.02937 0 L 258.02937 29 L 0 29 L 0 0 Z " fill="#f7f7f7"/>
<text fill="#828282" xml:space="preserve" transform="matrix(1.341835 0 0 1.341835 -96.439769 114.30646)" font-size="7.1600949" font-family="Helvetica"><tspan y="10.350795" x="88.26575 92.24676 96.22777 102.19212 106.173137 108.55745">nombre</tspan></text>
<text fill="#a9a9a9" xml:space="preserve" transform="matrix(1.341835 0 0 1.341835 -96.439769 114.30646)" font-size="7.1600949" font-family="Helvetica"><tspan y="10.350795" x="203.4333 207.01335 210.99437 213.37868 216.95873 220.93975 224.92076">varchar</tspan></text>
<path transform="matrix(.8006388,0,0,.8006388,11.590004,136.4421)" d="M 0 0 L 258.02937 0 L 258.02937 29 L 0 29 L 0 0 Z " fill="#f7f7f7"/>
<text fill="#828282" xml:space="preserve" transform="matrix(1.341835 0 0 1.341835 -96.439769 114.30646)" font-size="7.1600949" font-family="Helvetica"><tspan y="27.654358" x="88.26575 94.2301 98.21111 102.19212 103.78166 107.36171 108.95125 112.93226 114.5218">municipio</tspan></text>
<text fill="#a9a9a9" xml:space="preserve" transform="matrix(1.341835 0 0 1.341835 -96.439769 114.30646)" font-size="7.1600949" font-family="Helvetica"><tspan y="27.654358" x="203.4333 207.01335 210.99437 213.37868 216.95873 220.93975 224.92076">varchar</tspan></text>
<path transform="matrix(.8006388,0,0,.8006388,11.590004,159.66063)" d="M 0 0 L 258.02937 0 L 258.02937 29 L 0 29 L 0 0 Z " fill="#deedf2"/>
<text fill="#828282" xml:space="preserve" transform="matrix(1.341835 0 0 1.341835 -96.439769 114.30646)" font-size="7.1600949" font-family="Helvetica"><tspan y="44.95792" x="88.26575 89.855289 93.836299 97.81731 101.79832 105.77933 109.76034 113.74135 116.125659 118.116168 122.097179 128.06154 132.04256 136.02358 138.01409">id_departamento</tspan></text>
<text fill="#a9a9a9" xml:space="preserve" transform="matrix(1.341835 0 0 1.341835 -96.439769 114.30646)" font-size="7.1600949" font-family="Helvetica"><tspan y="44.95792" x="219.74629 221.33583 225.31685">int</tspan></text>
<path transform="matrix(.8006388,0,0,.8006388,11.590004,182.87915)" d="M 0 0 L 258.02937 0 L 258.02937 29 L 0 29 L 0 0 Z " fill="#deedf2"/>
<text fill="#828282" xml:space="preserve" transform="matrix(1.341835 0 0 1.341835 -96.439769 114.30646)" font-size="7.1600949" font-family="Helvetica"><tspan y="62.261484" x="88.26575 89.855289 93.836299 97.81731 101.397357 105.378368 107.36887 111.349887 115.330898 119.311908 121.69621 123.28575 127.26676 131.24777 135.22879 137.6131 141.59412 145.57514 149.55615 153.53717 155.92148 157.91199">id_categoriaaeropuerto</tspan></text>
<text fill="#a9a9a9" xml:space="preserve" transform="matrix(1.341835 0 0 1.341835 -96.439769 114.30646)" font-size="7.1600949" font-family="Helvetica"><tspan y="62.261484" x="203.4333 207.01335 210.99437 213.37868 216.95873 220.93975 224.92076">varchar</tspan></text>
<path transform="matrix(.8006388,0,0,.8006388,11.590004,206.09769)" d="M 0 0 L 258.02937 0 L 258.02937 29 L 0 29 L 0 0 Z " fill="#f7f7f7"/>
<text fill="#828282" xml:space="preserve" transform="matrix(1.341835 0 0 1.341835 -96.439769 114.30646)" font-size="7.1600949" font-family="Helvetica"><tspan y="79.56505" x="88.26575 89.855289 93.836299 95.826808 97.41634 99.40685 103.38786">latitud</tspan></text>
<text fill="#a9a9a9" xml:space="preserve" transform="matrix(1.341835 0 0 1.341835 -96.439769 114.30646)" font-size="7.1600949" font-family="Helvetica"><tspan y="79.56505" x="213.77489 215.7654 217.35494 221.33596 225.31697">float</tspan></text>
<path transform="matrix(.8006388,0,0,.8006388,11.590004,229.3162)" d="M 0 0 L 258.02937 0 L 258.02937 29 L 0 29 L 0 0 Z " fill="#f7f7f7"/>
<text fill="#828282" xml:space="preserve" transform="matrix(1.341835 0 0 1.341835 -96.439769 114.30646)" font-size="7.1600949" font-family="Helvetica"><tspan y="96.86861" x="88.26575 89.855289 93.836299 97.81731 101.79832 103.387859 105.378368 109.359378">longitud</tspan></text>
<text fill="#a9a9a9" xml:space="preserve" transform="matrix(1.341835 0 0 1.341835 -96.439769 114.30646)" font-size="7.1600949" font-family="Helvetica"><tspan y="96.86861" x="213.77489 215.7654 217.35494 221.33596 225.31697">float</tspan></text>
<path transform="matrix(.8006388,0,0,.8006388,11.590004,252.53473)" d="M 0 0 L 258.02937 0 L 258.02937 29 L 0 29 L 0 0 Z " fill="#f7f7f7"/>
<text fill="#828282" xml:space="preserve" transform="matrix(1.341835 0 0 1.341835 -96.439769 114.30646)" font-size="7.1600949" font-family="Helvetica"><tspan y="114.17217" x="88.26575 92.24676 94.63107 98.61208 102.593097 104.18263 108.16364 110.15415 114.13516 116.51947 118.10901">propietario</tspan></text>
<text fill="#a9a9a9" xml:space="preserve" transform="matrix(1.341835 0 0 1.341835 -96.439769 114.30646)" font-size="7.1600949" font-family="Helvetica"><tspan y="114.17217" x="203.4333 207.01335 210.99437 213.37868 216.95873 220.93975 224.92076">varchar</tspan></text>
<path transform="matrix(.8006388,0,0,.8006388,11.590004,275.75325)" d="M 0 0 L 258.02937 0 L 258.02937 29 L 0 29 L 0 0 Z " fill="#f7f7f7"/>
<text fill="#828282" xml:space="preserve" transform="matrix(1.341835 0 0 1.341835 -96.439769 114.30646)" font-size="7.1600949" font-family="Helvetica"><tspan y="131.47574" x="88.26575 92.24676 95.826808 99.807819 101.397357 105.378368 107.36887 111.349887 115.330898 119.311908">explotador</tspan></text>
<text fill="#a9a9a9" xml:space="preserve" transform="matrix(1.341835 0 0 1.341835 -96.439769 114.30646)" font-size="7.1600949" font-family="Helvetica"><tspan y="131.47574" x="203.4333 207.01335 210.99437 213.37868 216.95873 220.93975 224.92076">varchar</tspan></text>
<path transform="matrix(.8006388,0,0,.8006388,11.590004,298.97178)" d="M 0 0 L 258.02937 0 L 258.02937 29 L 0 29 L 0 0 Z " fill="#f7f7f7"/>
<text fill="#828282" xml:space="preserve" transform="matrix(1.341835 0 0 1.341835 -96.439769 114.30646)" font-size="7.1600949" font-family="Helvetica"><tspan y="148.7793" x="88.26575 89.855289 93.836299 97.81731 101.79832 103.387859 105.378368 109.359378 113.340389 117.321399 121.30241 122.891948 126.47199 128.4625">longitud_pista</tspan></text>
<text fill="#a9a9a9" xml:space="preserve" transform="matrix(1.341835 0 0 1.341835 -96.439769 114.30646)" font-size="7.1600949" font-family="Helvetica"><tspan y="148.7793" x="213.77489 215.7654 217.35494 221.33596 225.31697">float</tspan></text>
<path transform="matrix(.8006388,0,0,.8006388,11.590004,322.1903)" d="M 0 0 L 258.02937 0 L 258.02937 29 L 0 29 L 0 0 Z " fill="#f7f7f7"/>
<text fill="#828282" xml:space="preserve" transform="matrix(1.341835 0 0 1.341835 -96.439769 114.30646)" font-size="7.1600949" font-family="Helvetica"><tspan y="166.08286" x="88.26575 92.24676 96.22777 99.807819 103.788829 107.76984 111.75085 115.73186 117.321399 120.90144 122.89195">ancho_pista</tspan></text>
<text fill="#a9a9a9" xml:space="preserve" transform="matrix(1.341835 0 0 1.341835 -96.439769 114.30646)" font-size="7.1600949" font-family="Helvetica"><tspan y="166.08286" x="213.77489 215.7654 217.35494 221.33596 225.31697">float</tspan></text>
<path transform="matrix(.8006388,0,0,.8006388,11.590004,345.4088)" d="M 0 0 L 258.02937 0 L 258.02937 29 L 0 29 L 0 0 Z " fill="#f7f7f7"/>
<text fill="#828282" xml:space="preserve" transform="matrix(1.341835 0 0 1.341835 -96.439769 114.30646)" font-size="7.1600949" font-family="Helvetica"><tspan y="183.38642" x="88.26575 92.24676 96.22777 102.19212">pbmo</tspan></text>
<text fill="#a9a9a9" xml:space="preserve" transform="matrix(1.341835 0 0 1.341835 -96.439769 114.30646)" font-size="7.1600949" font-family="Helvetica"><tspan y="183.38642" x="213.77489 215.7654 217.35494 221.33596 225.31697">float</tspan></text>
<path transform="matrix(.8006388,0,0,.8006388,11.590004,368.62736)" d="M 0 0 L 258.02937 0 L 258.02937 29 L 0 29 L 0 0 Z " fill="#f7f7f7"/>
<text fill="#828282" xml:space="preserve" transform="matrix(1.341835 0 0 1.341835 -96.439769 114.30646)" font-size="7.1600949" font-family="Helvetica"><tspan y="200.68999" x="88.26575 92.24676 93.836299 97.81731 101.397357 105.378368 108.95841 110.54795 114.52896">elevacion</tspan></text>
<text fill="#a9a9a9" xml:space="preserve" transform="matrix(1.341835 0 0 1.341835 -96.439769 114.30646)" font-size="7.1600949" font-family="Helvetica"><tspan y="200.68999" x="213.77489 215.7654 217.35494 221.33596 225.31697">float</tspan></text>
<path transform="matrix(.8006388,0,0,.8006388,11.590004,391.8459)" d="M 0 0 L 258.02937 0 L 258.02937 29 L 0 29 L 0 0 Z " fill="#f7f7f7"/>
<text fill="#828282" xml:space="preserve" transform="matrix(1.341835 0 0 1.341835 -96.439769 114.30646)" font-size="7.1600949" font-family="Helvetica"><tspan y="217.99355" x="88.26575 90.650058 94.631069 98.21111 102.19212 103.78166 107.76267 111.34272 112.93226 116.91327">resolucion</tspan></text>
<text fill="#a9a9a9" xml:space="preserve" transform="matrix(1.341835 0 0 1.341835 -96.439769 114.30646)" font-size="7.1600949" font-family="Helvetica"><tspan y="217.99355" x="203.4333 207.01335 210.99437 213.37868 216.95873 220.93975 224.92076">varchar</tspan></text>
<path transform="matrix(.8006388,0,0,.8006388,11.590004,415.06443)" d="M 0 0 L 258.02937 0 L 258.02937 29 L 0 29 L 0 0 Z " fill="#f7f7f7"/>
<text fill="#828282" xml:space="preserve" transform="matrix(1.341835 0 0 1.341835 -96.439769 114.30646)" font-size="7.1600949" font-family="Helvetica"><tspan y="235.2971" x="88.26575 90.256259 94.23727 97.817317 101.798328 105.779338 109.760349 113.34039 117.3214 121.302417 124.88246 126.87297 129.25728 133.2383 136.81835 140.39839 141.98793 145.96895">fecha_construccion</tspan></text>
<text fill="#a9a9a9" xml:space="preserve" transform="matrix(1.341835 0 0 1.341835 -96.439769 114.30646)" font-size="7.1600949" font-family="Helvetica"><tspan y="235.2971" x="213.37284 217.35385 221.33487 223.32538">date</tspan></text>
<path transform="matrix(.8006388,0,0,.8006388,11.590004,438.28294)" d="M 0 0 L 258.02937 0 L 258.02937 29 L 0 29 L 0 0 Z " fill="#f7f7f7"/>
<text fill="#828282" xml:space="preserve" transform="matrix(1.341835 0 0 1.341835 -96.439769 114.30646)" font-size="7.1600949" font-family="Helvetica"><tspan y="252.60068" x="88.26575 90.256259 94.23727 97.817317 101.798328 105.779338 109.760349 113.34039 114.92993 118.91094 122.89195 126.87296 130.453 132.04254">fecha_vigencia</tspan></text>
<text fill="#a9a9a9" xml:space="preserve" transform="matrix(1.341835 0 0 1.341835 -96.439769 114.30646)" font-size="7.1600949" font-family="Helvetica"><tspan y="252.60068" x="213.37284 217.35385 221.33487 223.32538">date</tspan></text>
<path transform="matrix(.8006388,0,0,.8006388,11.590004,461.50148)" d="M 0 0 L 258.02937 0 L 258.02937 29 L 0 29 L 0 0 Z " fill="#f7f7f7"/>
<text fill="#828282" xml:space="preserve" transform="matrix(1.341835 0 0 1.341835 -96.439769 114.30646)" font-size="7.1600949" font-family="Helvetica"><tspan y="269.90425" x="88.26575 91.845798 93.43533 97.41634 100.99639">clase</tspan></text>
<text fill="#a9a9a9" xml:space="preserve" transform="matrix(1.341835 0 0 1.341835 -96.439769 114.30646)" font-size="7.1600949" font-family="Helvetica"><tspan y="269.90425" x="203.4333 207.01335 210.99437 213.37868 216.95873 220.93975 224.92076">varchar</tspan></text>
<path transform="matrix(.8006388,0,0,.8006388,11.590004,484.72)" d="M 0 0 L 258.02937 0 L 258.02937 29 L 0 29 L 0 0 Z " fill="#f7f7f7"/>
<text fill="#828282" xml:space="preserve" transform="matrix(1.341835 0 0 1.341835 -96.439769 114.30646)" font-size="7.1600949" font-family="Helvetica"><tspan y="287.2078" x="88.26575 90.256259 91.845798 95.826808">tipo</tspan></text>
<text fill="#a9a9a9" xml:space="preserve" transform="matrix(1.341835 0 0 1.341835 -96.439769 114.30646)" font-size="7.1600949" font-family="Helvetica"><tspan y="287.2078" x="203.4333 207.01335 210.99437 213.37868 216.95873 220.93975 224.92076">varchar</tspan></text>
<path transform="matrix(.8006388,0,0,.8006388,11.590004,507.9385)" d="M 0 0 L 258.02937 0 L 258.02937 29 L 0 29 L 0 0 Z " fill="#f7f7f7"/>
<text fill="#828282" xml:space="preserve" transform="matrix(1.341835 0 0 1.341835 -96.439769 114.30646)" font-size="7.1600949" font-family="Helvetica"><tspan y="304.51136" x="88.26575 92.24676 96.22777 102.19212 106.173137 108.55745 112.53846 116.51947 120.09952 124.08053 128.06154 129.65108 133.6321 137.21215 141.19316 145.17418 147.55849 149.14803 153.12905 157.11006">numero_vuelos_origen</tspan></text>
<text fill="#a9a9a9" xml:space="preserve" transform="matrix(1.341835 0 0 1.341835 -96.439769 114.30646)" font-size="7.1600949" font-family="Helvetica"><tspan y="304.51136" x="203.4333 207.01335 210.99437 213.37868 216.95873 220.93975 224.92076">varchar</tspan></text>
<path transform="matrix(.8006388,0,0,.8006388,11.590004,531.15707)" d="M 0 0 L 258.02937 0 L 258.02937 29 L 0 29 L 0 0 Z " fill="#f7f7f7"/>
<text fill="#828282" xml:space="preserve" transform="matrix(1.341835 0 0 1.341835 -96.439769 114.30646)" font-size="7.1600949" font-family="Helvetica"><tspan y="321.8149" x="88.26575 92.24676 95.826808 99.807819 103.788829 107.76984 111.75085 115.73186 119.71287 122.09718 124.08769 128.06871 134.03307 138.01409 141.9951 143.98561">gcd_departamento</tspan></text>
<text fill="#a9a9a9" xml:space="preserve" transform="matrix(1.341835 0 0 1.341835 -96.439769 114.30646)" font-size="7.1600949" font-family="Helvetica"><tspan y="321.8149" x="219.74629 221.33583 225.31685">int</tspan></text>
<path transform="matrix(.8006388,0,0,.8006388,11.590004,554.37557)" d="M 0 0 L 258.02937 0 L 258.02937 29 L 0 29 L 0 0 Z " fill="#f7f7f7"/>
<text fill="#828282" xml:space="preserve" transform="matrix(1.341835 0 0 1.341835 -96.439769 114.30646)" font-size="7.1600949" font-family="Helvetica"><tspan y="339.1185" x="88.26575 92.24676 95.826808 99.807819 103.788829 109.75319 113.7342 117.71521 119.30475 122.884799 124.474338 128.45536 130.04489">gcd_municipio</tspan></text>
<text fill="#a9a9a9" xml:space="preserve" transform="matrix(1.341835 0 0 1.341835 -96.439769 114.30646)" font-size="7.1600949" font-family="Helvetica"><tspan y="339.1185" x="219.74629 221.33583 225.31685">int</tspan></text>
<path transform="matrix(.8006388,0,0,.8006388,11.590004,577.5941)" d="M 0 0 L 258.02937 0 L 258.02937 29 L 0 29 L 0 0 Z " fill="#f7f7f7"/>
<text fill="#828282" xml:space="preserve" transform="matrix(1.341835 0 0 1.341835 -96.439769 114.30646)" font-size="7.1600949" font-family="Helvetica"><tspan y="356.42207" x="88.26575 91.845798 95.826808 99.807819">year</tspan></text>
<text fill="#a9a9a9" xml:space="preserve" transform="matrix(1.341835 0 0 1.341835 -96.439769 114.30646)" font-size="7.1600949" font-family="Helvetica"><tspan y="356.42207" x="203.4333 207.01335 210.99437 213.37868 216.95873 220.93975 224.92076">varchar</tspan></text>
<path transform="matrix(.8006388,0,0,.8006388,11.590004,600.8126)" d="M 0 0 L 258.02937 0 L 258.02937 29 L 0 29 L 0 0 Z " fill="#f7f7f7"/>
<text fill="#828282" xml:space="preserve" transform="matrix(1.341835 0 0 1.341835 -96.439769 114.30646)" font-size="7.1600949" font-family="Helvetica"><tspan y="373.72563" x="88.26575 90.256259 94.23727 97.817317 101.798328 105.779338 109.760349 111.349887 115.330898 116.92043 120.50048 122.09002">fecha_inicio</tspan></text>
<text fill="#a9a9a9" xml:space="preserve" transform="matrix(1.341835 0 0 1.341835 -96.439769 114.30646)" font-size="7.1600949" font-family="Helvetica"><tspan y="373.72563" x="213.37284 217.35385 221.33487 223.32538">date</tspan></text>
<path transform="matrix(.8006388,0,0,.8006388,11.590004,624.0311)" d="M 0 0 L 258.02937 0 L 258.02937 29 L 0 29 L 0 0 Z " fill="#f7f7f7"/>
<text fill="#828282" xml:space="preserve" transform="matrix(1.341835 0 0 1.341835 -96.439769 114.30646)" font-size="7.1600949" font-family="Helvetica"><tspan y="391.02919" x="88.26575 90.256259 94.23727 97.817317 101.798328 105.779338 109.760349 111.750858 113.34039">fecha_fin</tspan></text>
<text fill="#a9a9a9" xml:space="preserve" transform="matrix(1.341835 0 0 1.341835 -96.439769 114.30646)" font-size="7.1600949" font-family="Helvetica"><tspan y="391.02919" x="213.37284 217.35385 221.33487 223.32538">date</tspan></text>
<path transform="matrix(.8006388,0,0,.8006388,11.590004,647.2497)" d="M 0 0 L 258.02937 0 L 258.02937 29 L 0 29 L 0 0 Z " fill="#f7f7f7"/>
<text fill="#828282" xml:space="preserve" transform="matrix(1.341835 0 0 1.341835 -96.439769 114.30646)" font-size="7.1600949" font-family="Helvetica"><tspan y="408.33274" x="88.26575 91.845798 93.43533 97.41634 101.397357 105.378368 107.36887">vigente</tspan></text>
<text fill="#a9a9a9" xml:space="preserve" transform="matrix(1.341835 0 0 1.341835 -96.439769 114.30646)" font-size="7.1600949" font-family="Helvetica"><tspan y="408.33274" x="203.4333 207.01335 210.99437 213.37868 216.95873 220.93975 224.92076">varchar</tspan></text>
<path transform="matrix(.8006388,0,0,.8006388,11.590004,670.4682)" d="M 0 0 L 258.02937 0 L 258.02937 29 L 0 29 L 0 0 Z " fill="#f7f7f7"/>
<text fill="#828282" xml:space="preserve" transform="matrix(1.341835 0 0 1.341835 -96.439769 114.30646)" font-size="7.1600949" font-family="Helvetica"><tspan y="425.6363" x="88.26575 92.24676 96.22777 97.81731">pais</tspan></text>
<text fill="#a9a9a9" xml:space="preserve" transform="matrix(1.341835 0 0 1.341835 -96.439769 114.30646)" font-size="7.1600949" font-family="Helvetica"><tspan y="425.6363" x="203.4333 207.01335 210.99437 213.37868 216.95873 220.93975 224.92076">varchar</tspan></text>
<path transform="matrix(.8006388,0,0,.8006388,696.9368,411.86186)" d="M 0 0 L 222.51166 0 L 222.51166 32 L 0 32 L 0 0 Z " fill="#306996"/>
<text fill="#ffffff" xml:space="preserve" transform="matrix(1.341835 0 0 1.341835 -96.439769 114.30646)" font-size="7.756769" font-family="Helvetica" font-weight="bold"><tspan y="234.01425" x="599.01919 601.6022 605.9149 610.22769 614.96707">fecha</tspan></text>
<path transform="matrix(.8006388,0,0,.8006388,696.9368,437.4823)" d="M 0 0 L 222.51166 0 L 222.51166 29 L 0 29 L 0 0 Z " fill="#deedf2"/>
<text xml:space="preserve" transform="matrix(1.341835 0 0 1.341835 -96.439769 114.30646)" font-size="7.1600949" font-family="Helvetica"><tspan y="252.004" x="599.01919 600.6087">id</tspan></text>
<text fill="#a9a9a9" xml:space="preserve" transform="matrix(1.341835 0 0 1.341835 -96.439769 114.30646)" font-size="7.1600949" font-family="Helvetica"><tspan y="252.004" x="708.122 709.71157 713.69259">int</tspan></text>
<path transform="matrix(.8006388,0,0,.8006388,696.9368,460.70085)" d="M 0 0 L 222.51166 0 L 222.51166 29 L 0 29 L 0 0 Z " fill="#f7f7f7"/>
<text fill="#828282" xml:space="preserve" transform="matrix(1.341835 0 0 1.341835 -96.439769 114.30646)" font-size="7.1600949" font-family="Helvetica"><tspan y="269.30757" x="599.01919 603.0002 606.9812 608.9717">date</tspan></text>
<text fill="#a9a9a9" xml:space="preserve" transform="matrix(1.341835 0 0 1.341835 -96.439769 114.30646)" font-size="7.1600949" font-family="Helvetica"><tspan y="269.30757" x="702.9338 706.9148 710.8958 712.8863">date</tspan></text>
<path transform="matrix(.8006388,0,0,.8006388,696.9368,483.91935)" d="M 0 0 L 222.51166 0 L 222.51166 29 L 0 29 L 0 0 Z " fill="#f7f7f7"/>
<text fill="#828282" xml:space="preserve" transform="matrix(1.341835 0 0 1.341835 -96.439769 114.30646)" font-size="7.1600949" font-family="Helvetica"><tspan y="286.6111" x="599.01919 602.5992 606.5802 610.5612">year</tspan></text>
<text fill="#a9a9a9" xml:space="preserve" transform="matrix(1.341835 0 0 1.341835 -96.439769 114.30646)" font-size="7.1600949" font-family="Helvetica"><tspan y="286.6111" x="709.3072 710.8967 714.87777">int</tspan></text>
<path transform="matrix(.8006388,0,0,.8006388,696.9368,507.13789)" d="M 0 0 L 222.51166 0 L 222.51166 29 L 0 29 L 0 0 Z " fill="#f7f7f7"/>
<text fill="#828282" xml:space="preserve" transform="matrix(1.341835 0 0 1.341835 -96.439769 114.30646)" font-size="7.1600949" font-family="Helvetica"><tspan y="303.91468" x="599.01919 604.9835 608.96456 612.94558 614.93606">month</tspan></text>
<text fill="#a9a9a9" xml:space="preserve" transform="matrix(1.341835 0 0 1.341835 -96.439769 114.30646)" font-size="7.1600949" font-family="Helvetica"><tspan y="303.91468" x="709.3072 710.8967 714.87777">int</tspan></text>
<path transform="matrix(.8006388,0,0,.8006388,696.9368,530.3564)" d="M 0 0 L 222.51166 0 L 222.51166 29 L 0 29 L 0 0 Z " fill="#f7f7f7"/>
<text fill="#828282" xml:space="preserve" transform="matrix(1.341835 0 0 1.341835 -96.439769 114.30646)" font-size="7.1600949" font-family="Helvetica"><tspan y="321.21827" x="599.01919 603.0002 606.9812">day</tspan></text>
<text fill="#a9a9a9" xml:space="preserve" transform="matrix(1.341835 0 0 1.341835 -96.439769 114.30646)" font-size="7.1600949" font-family="Helvetica"><tspan y="321.21827" x="709.3072 710.8967 714.87777">int</tspan></text>
<path transform="matrix(.8006388,0,0,.8006388,696.9368,553.57498)" d="M 0 0 L 222.51166 0 L 222.51166 29 L 0 29 L 0 0 Z " fill="#f7f7f7"/>
<text fill="#828282" xml:space="preserve" transform="matrix(1.341835 0 0 1.341835 -96.439769 114.30646)" font-size="7.1600949" font-family="Helvetica"><tspan y="338.52183" x="599.01919 603.0002 606.9812 610.5612 614.54226 618.52328 620.51376 624.49478 629.66439 633.6454 637.6264">day_of_week</tspan></text>
<text fill="#a9a9a9" xml:space="preserve" transform="matrix(1.341835 0 0 1.341835 -96.439769 114.30646)" font-size="7.1600949" font-family="Helvetica"><tspan y="338.52183" x="709.3072 710.8967 714.87777">int</tspan></text>
<path transform="matrix(.8006388,0,0,.8006388,696.9368,576.79348)" d="M 0 0 L 222.51166 0 L 222.51166 29 L 0 29 L 0 0 Z " fill="#f7f7f7"/>
<text fill="#828282" xml:space="preserve" transform="matrix(1.341835 0 0 1.341835 -96.439769 114.30646)" font-size="7.1600949" font-family="Helvetica"><tspan y="355.82539" x="599.01919 603.0002 606.9812 610.5612 614.54226 618.52328 620.51376 624.49478 628.07479 632.0558 636.0368">day_of_year</tspan></text>
<text fill="#a9a9a9" xml:space="preserve" transform="matrix(1.341835 0 0 1.341835 -96.439769 114.30646)" font-size="7.1600949" font-family="Helvetica"><tspan y="355.82539" x="709.3072 710.8967 714.87777">int</tspan></text>
<path transform="matrix(.8006388,0,0,.8006388,696.9368,600.01199)" d="M 0 0 L 222.51166 0 L 222.51166 29 L 0 29 L 0 0 Z " fill="#f7f7f7"/>
<text fill="#828282" xml:space="preserve" transform="matrix(1.341835 0 0 1.341835 -96.439769 114.30646)" font-size="7.1600949" font-family="Helvetica"><tspan y="373.12895" x="599.01919 604.1888 608.1698 612.1508 615.73086 619.71188 623.6929 625.68338 629.66439 633.2444 637.2254 641.2064">week_of_year</tspan></text>
<text fill="#a9a9a9" xml:space="preserve" transform="matrix(1.341835 0 0 1.341835 -96.439769 114.30646)" font-size="7.1600949" font-family="Helvetica"><tspan y="373.12895" x="709.3072 710.8967 714.87777">int</tspan></text>
<path transform="matrix(.8006388,0,0,.8006388,696.9368,623.2305)" d="M 0 0 L 222.51166 0 L 222.51166 29 L 0 29 L 0 0 Z " fill="#f7f7f7"/>
<text fill="#828282" xml:space="preserve" transform="matrix(1.341835 0 0 1.341835 -96.439769 114.30646)" font-size="7.1600949" font-family="Helvetica"><tspan y="390.4325" x="599.01919 603.0002 606.9812 610.5612 614.54226 618.52328 622.5043 628.4686">day_name</tspan></text>
<text fill="#a9a9a9" xml:space="preserve" transform="matrix(1.341835 0 0 1.341835 -96.439769 114.30646)" font-size="7.1600949" font-family="Helvetica"><tspan y="390.4325" x="680.2613 683.8413 687.8223 690.20669 693.7867 697.7677 701.7487 704.13308 706.5174 710.4984 714.47946">varchar(20)</tspan></text>
<path transform="matrix(.8006388,0,0,.8006388,696.9368,646.44906)" d="M 0 0 L 222.51166 0 L 222.51166 29 L 0 29 L 0 0 Z " fill="#f7f7f7"/>
<text fill="#828282" xml:space="preserve" transform="matrix(1.341835 0 0 1.341835 -96.439769 114.30646)" font-size="7.1600949" font-family="Helvetica"><tspan y="407.73606" x="599.01919 604.9835 608.96456 612.94558 614.93606 618.91708 622.8981 626.8791 630.8601 636.82449">month_name</tspan></text>
<text fill="#a9a9a9" xml:space="preserve" transform="matrix(1.341835 0 0 1.341835 -96.439769 114.30646)" font-size="7.1600949" font-family="Helvetica"><tspan y="407.73606" x="680.2613 683.8413 687.8223 690.20669 693.7867 697.7677 701.7487 704.13308 706.5174 710.4984 714.47946">varchar(20)</tspan></text>
<path transform="matrix(.8006388,0,0,.8006388,786.6084,184.48043)" d="M 0 0 L 166.29663 0 L 166.29663 32 L 0 32 L 0 0 Z " fill="#306996"/>
<text fill="#ffffff" xml:space="preserve" transform="matrix(1.341835 0 0 1.341835 -96.439769 114.30646)" font-size="7.756769" font-family="Helvetica" font-weight="bold"><tspan y="64.55868" x="665.84677 668.42977 670.5861 675.3255 680.0649 684.3776 688.69039 693.42977 698.1691 700.3255 705.0649">tipo_equipo</tspan></text>
<path transform="matrix(.8006388,0,0,.8006388,786.6084,210.10086)" d="M 0 0 L 166.29663 0 L 166.29663 29 L 0 29 L 0 0 Z " fill="#deedf2"/>
<text xml:space="preserve" transform="matrix(1.341835 0 0 1.341835 -96.439769 114.30646)" font-size="7.1600949" font-family="Helvetica"><tspan y="82.548419" x="665.84677 667.4363">id</tspan></text>
<text fill="#a9a9a9" xml:space="preserve" transform="matrix(1.341835 0 0 1.341835 -96.439769 114.30646)" font-size="7.1600949" font-family="Helvetica"><tspan y="82.548419" x="741.40756 742.9971 746.9781">int</tspan></text>
<path transform="matrix(.8006388,0,0,.8006388,786.6084,233.3194)" d="M 0 0 L 166.29663 0 L 166.29663 29 L 0 29 L 0 0 Z " fill="#f7f7f7"/>
<text fill="#828282" xml:space="preserve" transform="matrix(1.341835 0 0 1.341835 -96.439769 114.30646)" font-size="7.1600949" font-family="Helvetica"><tspan y="99.85198" x="665.84677 669.82778 673.8088 677.7898 679.37936 683.36038">equipo</tspan></text>
<text fill="#a9a9a9" xml:space="preserve" transform="matrix(1.341835 0 0 1.341835 -96.439769 114.30646)" font-size="7.1600949" font-family="Helvetica"><tspan y="99.85198" x="726.2797 729.85977 733.84078 736.2251 739.8051 743.78616 747.76718">varchar</tspan></text>
<path transform="matrix(.8006388,0,0,.8006388,728.9624,88.40376)" d="M 0 0 L 176.47621 0 L 176.47621 32 L 0 32 L 0 0 Z " fill="#306996"/>
<text fill="#ffffff" xml:space="preserve" transform="matrix(1.341835 0 0 1.341835 -96.439769 114.30646)" font-size="7.756769" font-family="Helvetica" font-weight="bold"><tspan y="-7.042269" x="622.88619 627.1989 634.09469 638.83407 641.85147 646.1642 650.4769">empresa</tspan></text>
<path transform="matrix(.8006388,0,0,.8006388,728.9624,114.02421)" d="M 0 0 L 176.47621 0 L 176.47621 29 L 0 29 L 0 0 Z " fill="#deedf2"/>
<text xml:space="preserve" transform="matrix(1.341835 0 0 1.341835 -96.439769 114.30646)" font-size="7.1600949" font-family="Helvetica"><tspan y="10.947469" x="622.88619 624.4757">id</tspan></text>
<text fill="#a9a9a9" xml:space="preserve" transform="matrix(1.341835 0 0 1.341835 -96.439769 114.30646)" font-size="7.1600949" font-family="Helvetica"><tspan y="10.947469" x="704.5208 706.11038 710.0914">int</tspan></text>
<path transform="matrix(.8006388,0,0,.8006388,728.9624,137.24274)" d="M 0 0 L 176.47621 0 L 176.47621 29 L 0 29 L 0 0 Z " fill="#f7f7f7"/>
<text fill="#828282" xml:space="preserve" transform="matrix(1.341835 0 0 1.341835 -96.439769 114.30646)" font-size="7.1600949" font-family="Helvetica"><tspan y="28.251032" x="622.88619 626.8672 632.83157 636.81259 639.1969 643.1779 646.75796">empresa</tspan></text>
<text fill="#a9a9a9" xml:space="preserve" transform="matrix(1.341835 0 0 1.341835 -96.439769 114.30646)" font-size="7.1600949" font-family="Helvetica"><tspan y="28.251032" x="689.393 692.973 696.95407 699.3384 702.9184 706.8994 710.88046">varchar</tspan></text>
<path transform="matrix(.8006388,0,0,.8006388,789.811,277.35456)" d="M 0 0 L 177.08255 0 L 177.08255 32 L 0 32 L 0 0 Z " fill="#306996"/>
<text fill="#ffffff" xml:space="preserve" transform="matrix(1.341835 0 0 1.341835 -96.439769 114.30646)" font-size="7.756769" font-family="Helvetica" font-weight="bold"><tspan y="133.77294" x="668.23348 670.81649 672.97286 677.7122 682.4516 686.76437 691.0771 695.81649 700.1292 702.2856 707.02499 711.3377 713.9207 716.9381 721.25088 723.83389 725.99026 730.303">tipo_vuelo_trafico</tspan></text>
<path transform="matrix(.8006388,0,0,.8006388,789.811,302.97499)" d="M 0 0 L 177.08255 0 L 177.08255 29 L 0 29 L 0 0 Z " fill="#deedf2"/>
<text xml:space="preserve" transform="matrix(1.341835 0 0 1.341835 -96.439769 114.30646)" font-size="7.1600949" font-family="Helvetica"><tspan y="151.76267" x="668.23348 669.823">id</tspan></text>
<text fill="#a9a9a9" xml:space="preserve" transform="matrix(1.341835 0 0 1.341835 -96.439769 114.30646)" font-size="7.1600949" font-family="Helvetica"><tspan y="151.76267" x="750.22988 751.8194 755.8004">int</tspan></text>
<path transform="matrix(.8006388,0,0,.8006388,789.811,326.19349)" d="M 0 0 L 177.08255 0 L 177.08255 29 L 0 29 L 0 0 Z " fill="#f7f7f7"/>
<text fill="#828282" xml:space="preserve" transform="matrix(1.341835 0 0 1.341835 -96.439769 114.30646)" font-size="7.1600949" font-family="Helvetica"><tspan y="169.06624" x="668.23348 670.22396 672.6083 676.5893 678.5798 680.1693 683.7493">trafico</tspan></text>
<text fill="#a9a9a9" xml:space="preserve" transform="matrix(1.341835 0 0 1.341835 -96.439769 114.30646)" font-size="7.1600949" font-family="Helvetica"><tspan y="169.06624" x="726.35128 729.9313 733.9123 736.29666 739.87667 743.85769 747.8387 750.223 752.60739 756.5884">varchar(1)</tspan></text>
<path transform="matrix(.8006388,0,0,.8006388,789.811,349.41203)" d="M 0 0 L 177.08255 0 L 177.08255 29 L 0 29 L 0 0 Z " fill="#f7f7f7"/>
<text fill="#828282" xml:space="preserve" transform="matrix(1.341835 0 0 1.341835 -96.439769 114.30646)" font-size="7.1600949" font-family="Helvetica"><tspan y="186.3698" x="668.23348 671.8135 675.7945 679.7755 681.36508">vuelo</tspan></text>
<text fill="#a9a9a9" xml:space="preserve" transform="matrix(1.341835 0 0 1.341835 -96.439769 114.30646)" font-size="7.1600949" font-family="Helvetica"><tspan y="186.3698" x="736.2978 739.8778 743.8588 747.83987 750.2242 752.6085 756.58956">char(1)</tspan></text>
<path transform="matrix(.8006388,0,0,.8006388,610.46786,818.58639)" d="M 0 0 L 264.85075 0 L 264.85075 32 L 0 32 L 0 0 Z " fill="#306996"/>
<text fill="#ffffff" xml:space="preserve" transform="matrix(1.341835 0 0 1.341835 -96.439769 114.30646)" font-size="7.756769" font-family="Helvetica" font-weight="bold"><tspan y="537.12496" x="534.5783 538.89108 543.2038 547.9432 550.5262 553.5436 558.28298 562.5957 567.3351 572.07449 576.81387 578.9702 583.28298 588.02236">centro_poblado</tspan></text>
<path transform="matrix(.8006388,0,0,.8006388,610.46786,844.2068)" d="M 0 0 L 264.85075 0 L 264.85075 29 L 0 29 L 0 0 Z " fill="#deedf2"/>
<text xml:space="preserve" transform="matrix(1.341835 0 0 1.341835 -96.439769 114.30646)" font-size="7.1600949" font-family="Helvetica"><tspan y="555.1147" x="534.5783 536.16787 540.14889 544.1299 547.7099 551.6909 555.67196 557.6624 560.04678 564.0278 568.0088 571.9898 575.9708 579.95187 581.5414 585.5224 589.5034">id_centro_poblado</tspan></text>
<text fill="#a9a9a9" xml:space="preserve" transform="matrix(1.341835 0 0 1.341835 -96.439769 114.30646)" font-size="7.1600949" font-family="Helvetica"><tspan y="555.1147" x="668.94387 670.5334 674.5144">int</tspan></text>
<path transform="matrix(.8006388,0,0,.8006388,610.46786,867.42538)" d="M 0 0 L 264.85075 0 L 264.85075 29 L 0 29 L 0 0 Z " fill="#f7f7f7"/>
<text fill="#828282" xml:space="preserve" transform="matrix(1.341835 0 0 1.341835 -96.439769 114.30646)" font-size="7.1600949" font-family="Helvetica"><tspan y="572.4183" x="534.5783 538.5593 542.54037 548.5047 552.4857 554.87008 558.8511 562.8321 566.4121 570.3931 574.37417 576.3646 578.74899 582.73 586.711 590.692 594.67306 598.65408 600.2436 604.2246 608.2056">nombre_centro_poblado</tspan></text>
<text fill="#a9a9a9" xml:space="preserve" transform="matrix(1.341835 0 0 1.341835 -96.439769 114.30646)" font-size="7.1600949" font-family="Helvetica"><tspan y="572.4183" x="653.81607 657.39608 661.3771 663.7614 667.34146 671.32247 675.30349">varchar</tspan></text>
<path transform="matrix(.8006388,0,0,.8006388,610.46786,890.64389)" d="M 0 0 L 264.85075 0 L 264.85075 29 L 0 29 L 0 0 Z " fill="#f7f7f7"/>
<text fill="#828282" xml:space="preserve" transform="matrix(1.341835 0 0 1.341835 -96.439769 114.30646)" font-size="7.1600949" font-family="Helvetica"><tspan y="589.7218" x="534.5783 540.54269 544.5237 548.5047 550.09426 553.67428 555.2638 559.2448 560.83438">municipio</tspan></text>
<text fill="#a9a9a9" xml:space="preserve" transform="matrix(1.341835 0 0 1.341835 -96.439769 114.30646)" font-size="7.1600949" font-family="Helvetica"><tspan y="589.7218" x="653.81607 657.39608 661.3771 663.7614 667.34146 671.32247 675.30349">varchar</tspan></text>
<path transform="matrix(.8006388,0,0,.8006388,610.46786,913.8624)" d="M 0 0 L 264.85075 0 L 264.85075 29 L 0 29 L 0 0 Z " fill="#deedf2"/>
<text fill="#828282" xml:space="preserve" transform="matrix(1.341835 0 0 1.341835 -96.439769 114.30646)" font-size="7.1600949" font-family="Helvetica"><tspan y="607.0254" x="534.5783 536.16787 540.14889 544.1299 548.1109 552.0919 556.07296 560.05398 562.4383 564.4288 568.4098 574.37417 578.35519 582.3362 584.32669">id_departamento</tspan></text>
<text fill="#a9a9a9" xml:space="preserve" transform="matrix(1.341835 0 0 1.341835 -96.439769 114.30646)" font-size="7.1600949" font-family="Helvetica"><tspan y="607.0254" x="670.129 671.71859 675.6996">int</tspan></text>
<path transform="matrix(.8006388,0,0,.8006388,14.792557,738.5225)" d="M 0 0 L 223.70102 0 L 223.70102 32 L 0 32 L 0 0 Z " fill="#306996"/>
<text fill="#ffffff" xml:space="preserve" transform="matrix(1.341835 0 0 1.341835 -96.439769 114.30646)" font-size="7.756769" font-family="Helvetica" font-weight="bold"><tspan y="477.4575" x="90.65244 94.96521 99.27798 101.860988 106.17375 110.91314 115.65253 118.66991 120.82629 125.13905 129.45182 133.76457 138.07733 141.09471 145.83409 150.57347 155.31285 159.62561 162.64299 165.226">categoria_aeropuerto</tspan></text>
<path transform="matrix(.8006388,0,0,.8006388,14.792557,764.14297)" d="M 0 0 L 223.70102 0 L 223.70102 29 L 0 29 L 0 0 Z " fill="#deedf2"/>
<text xml:space="preserve" transform="matrix(1.341835 0 0 1.341835 -96.439769 114.30646)" font-size="7.1600949" font-family="Helvetica"><tspan y="495.44725" x="90.65244 92.24198 96.22299 100.204 103.78405 107.76506 109.75557 113.73658 117.71759 121.6986 124.08292 125.672458">id_categoria</tspan></text>
<text fill="#a9a9a9" xml:space="preserve" transform="matrix(1.341835 0 0 1.341835 -96.439769 114.30646)" font-size="7.1600949" font-family="Helvetica"><tspan y="495.44725" x="183.33736 186.9174 190.89842 193.28273 196.86278 200.8438 204.82482">varchar</tspan></text>
<path transform="matrix(.8006388,0,0,.8006388,14.792557,787.3615)" d="M 0 0 L 223.70102 0 L 223.70102 29 L 0 29 L 0 0 Z " fill="#f7f7f7"/>
<text fill="#828282" xml:space="preserve" transform="matrix(1.341835 0 0 1.341835 -96.439769 114.30646)" font-size="7.1600949" font-family="Helvetica"><tspan y="512.7508" x="90.65244 94.63345 98.61446 104.57883 108.55984 110.94415 114.92516 118.50521 122.48622 124.47673 128.45775 132.43877 136.41979 138.8041 140.39363">nombrecategoria</tspan></text>
<text fill="#a9a9a9" xml:space="preserve" transform="matrix(1.341835 0 0 1.341835 -96.439769 114.30646)" font-size="7.1600949" font-family="Helvetica"><tspan y="512.7508" x="185.33715 188.91719 192.89821 195.28252 198.86257 202.84358 206.8246">varchar</tspan></text>
<path transform="matrix(.8006388,0,0,.8006388,331.84556,543.1666)" d="M 0 0 L 270.1236 0 L 270.1236 32 L 0 32 L 0 0 Z " fill="#306996"/>
<text fill="#ffffff" xml:space="preserve" transform="matrix(1.341835 0 0 1.341835 -96.439769 114.30646)" font-size="7.756769" font-family="Helvetica" font-weight="bold"><tspan y="331.8689" x="326.93559 331.67497 335.98774 340.3005 345.0399 349.77928 354.09205 358.40483 363.1442 367.88359 372.19636 375.21376 377.79676 382.53614 385.55354 389.8663 394.17909 398.49186 402.80464 407.544 410.127 413.1444 417.8838 422.19657 426.93595 431.67533 436.4147 438.57109 442.88386 447.62324">hecho_cobertura_centro_poblado</tspan></text>
<path transform="matrix(.8006388,0,0,.8006388,331.84556,568.78707)" d="M 0 0 L 270.1236 0 L 270.1236 29 L 0 29 L 0 0 Z " fill="#f7f7f7"/>
<text xml:space="preserve" transform="matrix(1.341835 0 0 1.341835 -96.439769 114.30646)" font-size="7.1600949" font-family="Helvetica"><tspan y="349.85865" x="326.93559 328.52513">id</tspan></text>
<text fill="#a9a9a9" xml:space="preserve" transform="matrix(1.341835 0 0 1.341835 -96.439769 114.30646)" font-size="7.1600949" font-family="Helvetica"><tspan y="349.85865" x="464.44728 466.0368 470.01783">int</tspan></text>
<path transform="matrix(.8006388,0,0,.8006388,331.84556,592.0056)" d="M 0 0 L 270.1236 0 L 270.1236 29 L 0 29 L 0 0 Z " fill="#deedf2"/>
<text fill="#828282" xml:space="preserve" transform="matrix(1.341835 0 0 1.341835 -96.439769 114.30646)" font-size="7.1600949" font-family="Helvetica"><tspan y="367.1622" x="326.93559 328.52513 332.50614 336.48716 338.47767 342.45869 346.03874 350.01976">id_fecha</tspan></text>
<text fill="#a9a9a9" xml:space="preserve" transform="matrix(1.341835 0 0 1.341835 -96.439769 114.30646)" font-size="7.1600949" font-family="Helvetica"><tspan y="367.1622" x="465.63246 467.222 471.203">int</tspan></text>
<path transform="matrix(.8006388,0,0,.8006388,331.84556,615.2241)" d="M 0 0 L 270.1236 0 L 270.1236 29 L 0 29 L 0 0 Z " fill="#deedf2"/>
<text fill="#828282" xml:space="preserve" transform="matrix(1.341835 0 0 1.341835 -96.439769 114.30646)" font-size="7.1600949" font-family="Helvetica"><tspan y="384.46577" x="326.93559 328.52513 332.50614 336.48716 340.0672 344.04823 348.02925 350.01976 352.40406 356.38508 360.3661 364.3471 368.32814 372.30915 373.89869 377.8797 381.86073">id_centro_poblado</tspan></text>
<text fill="#a9a9a9" xml:space="preserve" transform="matrix(1.341835 0 0 1.341835 -96.439769 114.30646)" font-size="7.1600949" font-family="Helvetica"><tspan y="384.46577" x="465.63246 467.222 471.203">int</tspan></text>
<path transform="matrix(.8006388,0,0,.8006388,331.84556,638.4427)" d="M 0 0 L 270.1236 0 L 270.1236 29 L 0 29 L 0 0 Z " fill="#deedf2"/>
<text fill="#828282" xml:space="preserve" transform="matrix(1.341835 0 0 1.341835 -96.439769 114.30646)" font-size="7.1600949" font-family="Helvetica"><tspan y="401.76933" x="326.93559 328.52513 332.50614 336.48716 340.46818 344.4492 346.8335 350.8145 354.79554 358.77656 362.75758 365.14189 367.1324">id_aeropuerto</tspan></text>
<text fill="#a9a9a9" xml:space="preserve" transform="matrix(1.341835 0 0 1.341835 -96.439769 114.30646)" font-size="7.1600949" font-family="Helvetica"><tspan y="401.76933" x="465.63246 467.222 471.203">int</tspan></text>
<path transform="matrix(.8006388,0,0,.8006388,331.84556,661.6612)" d="M 0 0 L 270.1236 0 L 270.1236 29 L 0 29 L 0 0 Z " fill="#deedf2"/>
<text fill="#828282" xml:space="preserve" transform="matrix(1.341835 0 0 1.341835 -96.439769 114.30646)" font-size="7.1600949" font-family="Helvetica"><tspan y="419.07289" x="326.93559 328.52513 332.50614 336.48716 340.0672 344.04823 346.03874 350.01976 354.00077 357.98179 360.3661 361.95564">id_categoria</tspan></text>
<text fill="#a9a9a9" xml:space="preserve" transform="matrix(1.341835 0 0 1.341835 -96.439769 114.30646)" font-size="7.1600949" font-family="Helvetica"><tspan y="419.07289" x="449.31947 452.8995 456.88053 459.26484 462.84489 466.8259 470.80693">varchar</tspan></text>
<path transform="matrix(.8006388,0,0,.8006388,331.84556,684.8797)" d="M 0 0 L 270.1236 0 L 270.1236 29 L 0 29 L 0 0 Z " fill="#deedf2"/>
<text fill="#828282" xml:space="preserve" transform="matrix(1.341835 0 0 1.341835 -96.439769 114.30646)" font-size="7.1600949" font-family="Helvetica"><tspan y="436.37644" x="326.93559 328.52513 332.50614 336.48716 338.47767 340.0672 344.04823 348.02925 352.01026 355.5903 359.57133 363.55235 367.53337 369.91767 371.90818 375.8892 378.2735">id_tipo_cobertura</tspan></text>
<text fill="#a9a9a9" xml:space="preserve" transform="matrix(1.341835 0 0 1.341835 -96.439769 114.30646)" font-size="7.1600949" font-family="Helvetica"><tspan y="436.37644" x="449.31947 452.8995 456.88053 459.26484 462.84489 466.8259 470.80693">varchar</tspan></text>
<path transform="matrix(.8006388,0,0,.8006388,331.84556,708.0982)" d="M 0 0 L 270.1236 0 L 270.1236 29 L 0 29 L 0 0 Z " fill="#f7f7f7"/>
<text fill="#828282" xml:space="preserve" transform="matrix(1.341835 0 0 1.341835 -96.439769 114.30646)" font-size="7.1600949" font-family="Helvetica"><tspan y="453.68" x="326.93559 330.9166 332.50614 336.08619 338.0767 342.0577 346.03874 349.61878 351.2083">distancia</tspan></text>
<text fill="#a9a9a9" xml:space="preserve" transform="matrix(1.341835 0 0 1.341835 -96.439769 114.30646)" font-size="7.1600949" font-family="Helvetica"><tspan y="453.68" x="459.66105 461.65156 463.2411 467.2221 471.20314">float</tspan></text>
<path transform="matrix(.8006388,0,0,.8006388,373.47877,748.1302)" d="M 0 0 L 212.84748 0 L 212.84748 32 L 0 32 L 0 0 Z " fill="#306996"/>
<text fill="#ffffff" xml:space="preserve" transform="matrix(1.341835 0 0 1.341835 -96.439769 114.30646)" font-size="7.756769" font-family="Helvetica" font-weight="bold"><tspan y="484.61759" x="357.96266 360.11903 364.8584 369.59779 371.75416 376.06694 380.3797 385.11909 389.85847 392.87586 397.18864 401.5014 405.81419 410.12696 414.43974 419.1791 423.9185 428.65788 435.55366 437.71003 442.0228 446.76219">indicadores_economicos</tspan></text>
<path transform="matrix(.8006388,0,0,.8006388,373.47877,773.7506)" d="M 0 0 L 212.84748 0 L 212.84748 29 L 0 29 L 0 0 Z " fill="#f7f7f7"/>
<text xml:space="preserve" transform="matrix(1.341835 0 0 1.341835 -96.439769 114.30646)" font-size="7.1600949" font-family="Helvetica"><tspan y="502.60734" x="357.96266 359.5522">id</tspan></text>
<text fill="#a9a9a9" xml:space="preserve" transform="matrix(1.341835 0 0 1.341835 -96.439769 114.30646)" font-size="7.1600949" font-family="Helvetica"><tspan y="502.60734" x="461.29914 462.88868 466.8697">int</tspan></text>
<path transform="matrix(.8006388,0,0,.8006388,373.47877,796.9691)" d="M 0 0 L 212.84748 0 L 212.84748 29 L 0 29 L 0 0 Z " fill="#deedf2"/>
<text fill="#828282" xml:space="preserve" transform="matrix(1.341835 0 0 1.341835 -96.439769 114.30646)" font-size="7.1600949" font-family="Helvetica"><tspan y="519.9109" x="357.96266 359.5522 363.5332 367.51423 369.50474 373.48576 377.0658 381.0468">id_fecha</tspan></text>
<text fill="#a9a9a9" xml:space="preserve" transform="matrix(1.341835 0 0 1.341835 -96.439769 114.30646)" font-size="7.1600949" font-family="Helvetica"><tspan y="519.9109" x="462.4843 464.07386 468.05488">int</tspan></text>
<path transform="matrix(.8006388,0,0,.8006388,373.47877,820.1877)" d="M 0 0 L 212.84748 0 L 212.84748 29 L 0 29 L 0 0 Z " fill="#deedf2"/>
<text fill="#828282" xml:space="preserve" transform="matrix(1.341835 0 0 1.341835 -96.439769 114.30646)" font-size="7.1600949" font-family="Helvetica"><tspan y="537.2144" x="357.96266 359.5522 363.5332 367.51423 371.49525 375.47627 379.45729 383.4383 385.8226 387.8131 391.79414 397.75849 401.7395 405.72053 407.71104">id_departamento</tspan></text>
<text fill="#a9a9a9" xml:space="preserve" transform="matrix(1.341835 0 0 1.341835 -96.439769 114.30646)" font-size="7.1600949" font-family="Helvetica"><tspan y="537.2144" x="462.4843 464.07386 468.05488">int</tspan></text>
<path transform="matrix(.8006388,0,0,.8006388,373.47877,843.4062)" d="M 0 0 L 212.84748 0 L 212.84748 29 L 0 29 L 0 0 Z " fill="#f7f7f7"/>
<text fill="#828282" xml:space="preserve" transform="matrix(1.341835 0 0 1.341835 -96.439769 114.30646)" font-size="7.1600949" font-family="Helvetica"><tspan y="554.518" x="357.96266 361.94367 365.5237 369.50474 373.48576 375.87007 377.86058 381.84159 385.42164 387.01118 390.9922 394.9732 398.95423">exportaciones</tspan></text>
<text fill="#a9a9a9" xml:space="preserve" transform="matrix(1.341835 0 0 1.341835 -96.439769 114.30646)" font-size="7.1600949" font-family="Helvetica"><tspan y="554.518" x="456.5129 458.50343 460.09297 464.07398 468.055">float</tspan></text>
<path transform="matrix(.8006388,0,0,.8006388,373.47877,866.6247)" d="M 0 0 L 212.84748 0 L 212.84748 29 L 0 29 L 0 0 Z " fill="#f7f7f7"/>
<text fill="#828282" xml:space="preserve" transform="matrix(1.341835 0 0 1.341835 -96.439769 114.30646)" font-size="7.1600949" font-family="Helvetica"><tspan y="571.8216" x="357.96266 361.94367 363.5332">pib</tspan></text>
<text fill="#a9a9a9" xml:space="preserve" transform="matrix(1.341835 0 0 1.341835 -96.439769 114.30646)" font-size="7.1600949" font-family="Helvetica"><tspan y="571.8216" x="456.5129 458.50343 460.09297 464.07398 468.055">float</tspan></text>
<path transform="matrix(.8006388,0,0,.8006388,399.0992,168.46765)" d="M 0 0 L 251.93096 0 L 251.93096 32 L 0 32 L 0 0 Z " fill="#306996"/>
<text fill="#ffffff" xml:space="preserve" transform="matrix(1.341835 0 0 1.341835 -96.439769 114.30646)" font-size="7.756769" font-family="Helvetica" font-weight="bold"><tspan y="52.625188" x="377.05625 381.79563 386.1084 390.42118 395.16056 399.89994 404.2127 408.52549 413.26487 417.57765 419.734 424.4734">hecho_vuelos</tspan></text>
<path transform="matrix(.8006388,0,0,.8006388,399.0992,194.08809)" d="M 0 0 L 251.93096 0 L 251.93096 29 L 0 29 L 0 0 Z " fill="#f7f7f7"/>
<text xml:space="preserve" transform="matrix(1.341835 0 0 1.341835 -96.439769 114.30646)" font-size="7.1600949" font-family="Helvetica"><tspan y="70.61493" x="377.05625 378.64579">id</tspan></text>
<text fill="#a9a9a9" xml:space="preserve" transform="matrix(1.341835 0 0 1.341835 -96.439769 114.30646)" font-size="7.1600949" font-family="Helvetica"><tspan y="70.61493" x="503.71284 505.30238 509.2834">int</tspan></text>
<path transform="matrix(.8006388,0,0,.8006388,399.0992,217.30661)" d="M 0 0 L 251.93096 0 L 251.93096 29 L 0 29 L 0 0 Z " fill="#deedf2"/>
<text fill="#828282" xml:space="preserve" transform="matrix(1.341835 0 0 1.341835 -96.439769 114.30646)" font-size="7.1600949" font-family="Helvetica"><tspan y="87.91849" x="377.05625 378.64579 382.6268 386.60783 388.59834 392.57936 396.1594 400.1404">id_fecha</tspan></text>
<text fill="#a9a9a9" xml:space="preserve" transform="matrix(1.341835 0 0 1.341835 -96.439769 114.30646)" font-size="7.1600949" font-family="Helvetica"><tspan y="87.91849" x="504.898 506.48756 510.46858">int</tspan></text>
<path transform="matrix(.8006388,0,0,.8006388,399.0992,240.52515)" d="M 0 0 L 251.93096 0 L 251.93096 29 L 0 29 L 0 0 Z " fill="#deedf2"/>
<text fill="#828282" xml:space="preserve" transform="matrix(1.341835 0 0 1.341835 -96.439769 114.30646)" font-size="7.1600949" font-family="Helvetica"><tspan y="105.22205" x="377.05625 378.64579 382.6268 386.60783 390.58885 392.97315 394.56269 398.5437 402.52473">id_origen</tspan></text>
<text fill="#a9a9a9" xml:space="preserve" transform="matrix(1.341835 0 0 1.341835 -96.439769 114.30646)" font-size="7.1600949" font-family="Helvetica"><tspan y="105.22205" x="504.898 506.48756 510.46858">int</tspan></text>
<path transform="matrix(.8006388,0,0,.8006388,399.0992,263.74366)" d="M 0 0 L 251.93096 0 L 251.93096 29 L 0 29 L 0 0 Z " fill="#deedf2"/>
<text fill="#828282" xml:space="preserve" transform="matrix(1.341835 0 0 1.341835 -96.439769 114.30646)" font-size="7.1600949" font-family="Helvetica"><tspan y="122.52561" x="377.05625 378.64579 382.6268 386.60783 390.58885 394.56986 398.1499 400.1404 401.72996 405.71098">id_destino</tspan></text>
<text fill="#a9a9a9" xml:space="preserve" transform="matrix(1.341835 0 0 1.341835 -96.439769 114.30646)" font-size="7.1600949" font-family="Helvetica"><tspan y="122.52561" x="504.898 506.48756 510.46858">int</tspan></text>
<path transform="matrix(.8006388,0,0,.8006388,399.0992,286.9622)" d="M 0 0 L 251.93096 0 L 251.93096 29 L 0 29 L 0 0 Z " fill="#deedf2"/>
<text fill="#828282" xml:space="preserve" transform="matrix(1.341835 0 0 1.341835 -96.439769 114.30646)" font-size="7.1600949" font-family="Helvetica"><tspan y="139.82918" x="377.05625 378.64579 382.6268 386.60783 390.58885 394.56986 398.55088 400.1404 404.12144">id_equipo</tspan></text>
<text fill="#a9a9a9" xml:space="preserve" transform="matrix(1.341835 0 0 1.341835 -96.439769 114.30646)" font-size="7.1600949" font-family="Helvetica"><tspan y="139.82918" x="504.898 506.48756 510.46858">int</tspan></text>
<path transform="matrix(.8006388,0,0,.8006388,399.0992,310.18074)" d="M 0 0 L 251.93096 0 L 251.93096 29 L 0 29 L 0 0 Z " fill="#deedf2"/>
<text fill="#828282" xml:space="preserve" transform="matrix(1.341835 0 0 1.341835 -96.439769 114.30646)" font-size="7.1600949" font-family="Helvetica"><tspan y="157.13274" x="377.05625 378.64579 382.6268 386.60783 390.58885 396.5532 400.5342 402.91853 406.89955 410.47959">id_empresa</tspan></text>
<text fill="#a9a9a9" xml:space="preserve" transform="matrix(1.341835 0 0 1.341835 -96.439769 114.30646)" font-size="7.1600949" font-family="Helvetica"><tspan y="157.13274" x="504.898 506.48756 510.46858">int</tspan></text>
<path transform="matrix(.8006388,0,0,.8006388,399.0992,333.39924)" d="M 0 0 L 251.93096 0 L 251.93096 29 L 0 29 L 0 0 Z " fill="#deedf2"/>
<text fill="#828282" xml:space="preserve" transform="matrix(1.341835 0 0 1.341835 -96.439769 114.30646)" font-size="7.1600949" font-family="Helvetica"><tspan y="174.4363" x="377.05625 378.64579 382.6268 386.60783 388.59834 390.18788 394.16889">id_tipo</tspan></text>
<text fill="#a9a9a9" xml:space="preserve" transform="matrix(1.341835 0 0 1.341835 -96.439769 114.30646)" font-size="7.1600949" font-family="Helvetica"><tspan y="174.4363" x="504.898 506.48756 510.46858">int</tspan></text>
<path transform="matrix(.8006388,0,0,.8006388,399.0992,356.61778)" d="M 0 0 L 251.93096 0 L 251.93096 29 L 0 29 L 0 0 Z " fill="#f7f7f7"/>
<text fill="#828282" xml:space="preserve" transform="matrix(1.341835 0 0 1.341835 -96.439769 114.30646)" font-size="7.1600949" font-family="Helvetica"><tspan y="191.73987" x="377.05625 381.03727 385.01829 388.9993 392.57936 394.56986 398.55088 402.13093 406.11195 410.09297 411.6825 415.26255 419.24357 423.22459 427.2056 428.79515 432.77616 434.3657 438.3467">puestos_disponibles</tspan></text>
<text fill="#a9a9a9" xml:space="preserve" transform="matrix(1.341835 0 0 1.341835 -96.439769 114.30646)" font-size="7.1600949" font-family="Helvetica"><tspan y="191.73987" x="504.898 506.48756 510.46858">int</tspan></text>
<path transform="matrix(.8006388,0,0,.8006388,399.0992,379.8363)" d="M 0 0 L 251.93096 0 L 251.93096 29 L 0 29 L 0 0 Z " fill="#f7f7f7"/>
<text fill="#828282" xml:space="preserve" transform="matrix(1.341835 0 0 1.341835 -96.439769 114.30646)" font-size="7.1600949" font-family="Helvetica"><tspan y="209.04343" x="377.05625 380.6363 384.6173 387.00163 390.98265 394.96366 398.94468 402.9257 404.9162 407.3005 411.28153 414.86158 416.4511 420.43214">carga_ofrecida</tspan></text>
<text fill="#a9a9a9" xml:space="preserve" transform="matrix(1.341835 0 0 1.341835 -96.439769 114.30646)" font-size="7.1600949" font-family="Helvetica"><tspan y="209.04343" x="498.9266 500.9171 502.50666 506.48768 510.4687">float</tspan></text>
<path transform="matrix(.8006388,0,0,.8006388,399.0992,403.05485)" d="M 0 0 L 251.93096 0 L 251.93096 29 L 0 29 L 0 0 Z " fill="#f7f7f7"/>
<text fill="#828282" xml:space="preserve" transform="matrix(1.341835 0 0 1.341835 -96.439769 114.30646)" font-size="7.1600949" font-family="Helvetica"><tspan y="226.34699" x="377.05625 381.03727 385.01829 388.59834 392.57936 394.16889 398.1499 400.5342 404.51524 408.09529 412.0763 414.0668 416.4511 420.43214 424.41316 427.9932 431.9742 435.95524 438.33955 440.33006 444.31108 448.29209">pasajeros_transportado</tspan></text>
<text fill="#a9a9a9" xml:space="preserve" transform="matrix(1.341835 0 0 1.341835 -96.439769 114.30646)" font-size="7.1600949" font-family="Helvetica"><tspan y="226.34699" x="504.898 506.48756 510.46858">int</tspan></text>
<path transform="matrix(.8006388,0,0,.8006388,399.0992,426.27336)" d="M 0 0 L 251.93096 0 L 251.93096 29 L 0 29 L 0 0 Z " fill="#f7f7f7"/>
<text fill="#828282" xml:space="preserve" transform="matrix(1.341835 0 0 1.341835 -96.439769 114.30646)" font-size="7.1600949" font-family="Helvetica"><tspan y="243.65056" x="377.05625 380.6363 384.6173 387.00163 390.98265 394.96366 398.94468 400.93519 403.3195 407.3005 411.28153 414.86158 418.8426 422.8236 425.20793 427.19844 431.17945 435.16047">carga_transportado</tspan></text>
<text fill="#a9a9a9" xml:space="preserve" transform="matrix(1.341835 0 0 1.341835 -96.439769 114.30646)" font-size="7.1600949" font-family="Helvetica"><tspan y="243.65056" x="498.9266 500.9171 502.50666 506.48768 510.4687">float</tspan></text>
<path transform="matrix(.8006388,0,0,.8006388,399.0992,449.49189)" d="M 0 0 L 251.93096 0 L 251.93096 29 L 0 29 L 0 0 Z " fill="#f7f7f7"/>
<text fill="#828282" xml:space="preserve" transform="matrix(1.341835 0 0 1.341835 -96.439769 114.30646)" font-size="7.1600949" font-family="Helvetica"><tspan y="260.9541" x="377.05625 381.03727 385.01829 388.59834 392.57936 394.16889 398.1499 400.5342 404.51524 408.09529 412.0763 416.0573 420.03834 423.61839 427.5994 431.5804 433.96473 437.94575 441.5258 445.5068 449.08686 453.06788 457.0489 461.0299">pasajeros_desaprovechado</tspan></text>
<text fill="#a9a9a9" xml:space="preserve" transform="matrix(1.341835 0 0 1.341835 -96.439769 114.30646)" font-size="7.1600949" font-family="Helvetica"><tspan y="260.9541" x="504.898 506.48756 510.46858">int</tspan></text>
<path transform="matrix(.8006388,0,0,.8006388,399.0992,472.7104)" d="M 0 0 L 251.93096 0 L 251.93096 29 L 0 29 L 0 0 Z " fill="#f7f7f7"/>
<text fill="#828282" xml:space="preserve" transform="matrix(1.341835 0 0 1.341835 -96.439769 114.30646)" font-size="7.1600949" font-family="Helvetica"><tspan y="278.2577" x="377.05625 380.6363 384.6173 387.00163 390.98265 394.96366 398.94468 402.9257 406.9067 410.48677 414.46778 418.4488 420.8331 424.81413 428.39418 432.37519 435.95524 439.93626 443.91728 447.8983">carga_desaprovechado</tspan></text>
<text fill="#a9a9a9" xml:space="preserve" transform="matrix(1.341835 0 0 1.341835 -96.439769 114.30646)" font-size="7.1600949" font-family="Helvetica"><tspan y="278.2577" x="498.9266 500.9171 502.50666 506.48768 510.4687">float</tspan></text>
<path transform="matrix(.8006388,0,0,.8006388,399.0992,495.92893)" d="M 0 0 L 251.93096 0 L 251.93096 29 L 0 29 L 0 0 Z " fill="#f7f7f7"/>
<text fill="#828282" xml:space="preserve" transform="matrix(1.341835 0 0 1.341835 -96.439769 114.30646)" font-size="7.1600949" font-family="Helvetica"><tspan y="295.56126" x="377.05625 380.6363 384.6173 388.59834 390.18788 394.16889">vuelos</tspan></text>
<text fill="#a9a9a9" xml:space="preserve" transform="matrix(1.341835 0 0 1.341835 -96.439769 114.30646)" font-size="7.1600949" font-family="Helvetica"><tspan y="295.56126" x="504.898 506.48756 510.46858">int</tspan></text>
</g>
</svg>
